<svg width="329" height="330" viewBox="0 0 329 330" fill="none" xmlns="http://www.w3.org/2000/svg">
<circle cx="174" cy="175" r="155" fill="black"/>
<circle cx="155" cy="155" r="152.5" fill="#00FF5E" stroke="#222222" stroke-width="5"/>
<g filter="url(#filter0_d_383_89)">
<path d="M142.108 200.538C136.073 200.538 130.741 199.67 126.112 197.934C121.483 196.115 117.845 193.594 115.2 190.37C112.555 187.063 111.232 183.178 111.232 178.714C111.232 173.671 112.596 169.249 115.324 165.446C118.135 161.643 122.061 158.213 127.104 155.154C132.147 152.013 138.099 149.119 144.96 146.474C150.747 144.242 155.169 142.258 158.228 140.522C161.287 138.786 163.353 137.133 164.428 135.562C165.585 133.991 166.164 132.297 166.164 130.478C166.164 128.742 165.461 127.295 164.056 126.138C162.733 124.898 160.832 124.278 158.352 124.278C155.211 124.278 152.648 125.146 150.664 126.882C148.68 128.535 147.688 130.85 147.688 133.826C147.688 135.479 148.184 137.215 149.176 139.034C150.251 140.853 151.987 143.167 154.384 145.978L191.956 188.386L179.06 200.538L137.892 153.666C135.247 150.69 133.263 147.755 131.94 144.862C130.617 141.969 129.956 138.91 129.956 135.686C129.956 130.561 131.279 126.179 133.924 122.542C136.569 118.822 140.083 116.011 144.464 114.11C148.928 112.126 153.805 111.134 159.096 111.134C163.643 111.134 167.652 111.837 171.124 113.242C174.679 114.565 177.448 116.549 179.432 119.194C181.499 121.839 182.532 125.063 182.532 128.866C182.532 133.413 181.251 137.381 178.688 140.77C176.125 144.159 172.488 147.218 167.776 149.946C163.064 152.591 157.484 155.195 151.036 157.758C146.572 159.577 142.811 161.354 139.752 163.09C136.693 164.826 134.379 166.686 132.808 168.67C131.32 170.571 130.576 172.803 130.576 175.366C130.576 178.259 131.733 180.657 134.048 182.558C136.445 184.459 139.959 185.41 144.588 185.41C149.383 185.41 154.053 184.253 158.6 181.938C163.229 179.541 167.487 176.027 171.372 171.398C175.257 166.686 178.481 160.982 181.044 154.286L195.8 159.122C192.328 167.719 187.905 175.118 182.532 181.318C177.159 187.518 171.041 192.271 164.18 195.578C157.319 198.885 149.961 200.538 142.108 200.538Z" fill="#222222"/>
</g>
<defs>
<filter id="filter0_d_383_89" x="111.232" y="111.134" width="90.7684" height="94.0541" filterUnits="userSpaceOnUse" color-interpolation-filters="sRGB">
<feFlood flood-opacity="0" result="BackgroundImageFix"/>
<feColorMatrix in="SourceAlpha" type="matrix" values="0 0 0 0 0 0 0 0 0 0 0 0 0 0 0 0 0 0 127 0" result="hardAlpha"/>
<feOffset dx="6.2" dy="4.65"/>
<feColorMatrix type="matrix" values="0 0 0 0 0.117647 0 0 0 0 1 0 0 0 0 0.309804 0 0 0 1 0"/>
<feBlend mode="normal" in2="BackgroundImageFix" result="effect1_dropShadow_383_89"/>
<feBlend mode="normal" in="SourceGraphic" in2="effect1_dropShadow_383_89" result="shape"/>
</filter>
</defs>
</svg>
