<svg width="31" height="77" viewBox="0 0 31 77" fill="none" xmlns="http://www.w3.org/2000/svg">
<path d="M13.8006 62L13.8006 24.26L18.9006 29.18L6.00062 29.18L6.00062 20L25.6806 20L25.6806 62L13.8006 62Z" fill="black"/>
<mask id="path-2-outside-1_478_233" maskUnits="userSpaceOnUse" x="-0.359385" y="15" width="23" height="44" fill="black">
<rect fill="white" x="-0.359385" y="15" width="23" height="44"/>
<path d="M8.80062 58L8.80062 20.26L13.9006 25.18L1.00062 25.18L1.00062 16L20.6806 16L20.6806 58L8.80062 58Z"/>
</mask>
<path d="M8.80062 58L8.80062 20.26L13.9006 25.18L1.00062 25.18L1.00062 16L20.6806 16L20.6806 58L8.80062 58Z" fill="#1EFF4F"/>
<path d="M8.80062 58L7.80062 58L7.80062 59L8.80062 59L8.80062 58ZM8.80062 20.26L9.49491 19.5403L7.80062 17.9058L7.80062 20.26L8.80062 20.26ZM13.9006 25.18L13.9006 26.18L16.3775 26.18L14.5949 24.4603L13.9006 25.18ZM1.00062 25.18L0.000620601 25.18L0.000620426 26.18L1.00062 26.18L1.00062 25.18ZM1.00062 16L1.00062 15L0.00062238 15L0.000622206 16L1.00062 16ZM20.6806 16L21.6806 16L21.6806 15L20.6806 15L20.6806 16ZM20.6806 58L20.6806 59L21.6806 59L21.6806 58L20.6806 58ZM8.80062 58L9.80062 58L9.80062 20.26L8.80062 20.26L7.80062 20.26L7.80062 58L8.80062 58ZM8.80062 20.26L8.10633 20.9797L13.2063 25.8997L13.9006 25.18L14.5949 24.4603L9.49491 19.5403L8.80062 20.26ZM13.9006 25.18L13.9006 24.18L1.00062 24.18L1.00062 25.18L1.00062 26.18L13.9006 26.18L13.9006 25.18ZM1.00062 25.18L2.00062 25.18L2.00062 16L1.00062 16L0.000622206 16L0.000620601 25.18L1.00062 25.18ZM1.00062 16L1.00062 17L20.6806 17L20.6806 16L20.6806 15L1.00062 15L1.00062 16ZM20.6806 16L19.6806 16L19.6806 58L20.6806 58L21.6806 58L21.6806 16L20.6806 16ZM20.6806 58L20.6806 57L8.80062 57L8.80062 58L8.80062 59L20.6806 59L20.6806 58Z" fill="black" mask="url(#path-2-outside-1_478_233)"/>
</svg>
