<svg width="54" height="103" viewBox="0 0 54 103" fill="none" xmlns="http://www.w3.org/2000/svg">
<path d="M8.26327 83L8.26327 73.08L29.2233 53.48C30.7166 52.0933 31.8099 50.8667 32.5033 49.8C33.2499 48.7333 33.7299 47.7733 33.9433 46.92C34.2099 46.0133 34.3433 45.1867 34.3433 44.44C34.3433 42.6267 33.7299 41.2133 32.5033 40.2C31.3299 39.1867 29.5433 38.68 27.1433 38.68C25.1166 38.68 23.2233 39.1333 21.4633 40.04C19.7033 40.9467 18.2633 42.3067 17.1433 44.12L5.38328 37.56C7.46328 34.04 10.4766 31.2133 14.4233 29.08C18.3699 26.9467 23.0899 25.88 28.5833 25.88C32.9033 25.88 36.6899 26.5733 39.9433 27.96C43.1966 29.3467 45.7299 31.32 47.5433 33.88C49.4099 36.44 50.3433 39.4533 50.3433 42.92C50.3433 44.7333 50.1033 46.5467 49.6233 48.36C49.1433 50.12 48.2099 52.0133 46.8233 54.04C45.4899 56.0133 43.4899 58.2267 40.8233 60.68L24.1833 76.04L21.5433 70.44L51.8633 70.44L51.8633 83L8.26327 83Z" fill="#222222"/>
<mask id="path-2-outside-1_478_237" maskUnits="userSpaceOnUse" x="-0.136733" y="19" width="49" height="60" fill="black">
<rect fill="white" x="-0.136733" y="19" width="49" height="60"/>
<path d="M4.26327 78L4.26327 68.08L25.2233 48.48C26.7166 47.0933 27.8099 45.8667 28.5033 44.8C29.2499 43.7333 29.7299 42.7733 29.9433 41.92C30.2099 41.0133 30.3433 40.1867 30.3433 39.44C30.3433 37.6267 29.7299 36.2133 28.5033 35.2C27.3299 34.1867 25.5433 33.68 23.1433 33.68C21.1166 33.68 19.2233 34.1333 17.4633 35.04C15.7033 35.9467 14.2633 37.3067 13.1433 39.12L1.38328 32.56C3.46328 29.04 6.47661 26.2133 10.4233 24.08C14.3699 21.9467 19.0899 20.88 24.5833 20.88C28.9033 20.88 32.6899 21.5733 35.9433 22.96C39.1966 24.3467 41.7299 26.32 43.5433 28.88C45.4099 31.44 46.3433 34.4533 46.3433 37.92C46.3433 39.7333 46.1033 41.5467 45.6233 43.36C45.1433 45.12 44.2099 47.0133 42.8233 49.04C41.4899 51.0133 39.4899 53.2267 36.8233 55.68L20.1833 71.04L17.5433 65.44L47.8633 65.44L47.8633 78L4.26327 78Z"/>
</mask>
<path d="M4.26327 78L4.26327 68.08L25.2233 48.48C26.7166 47.0933 27.8099 45.8667 28.5033 44.8C29.2499 43.7333 29.7299 42.7733 29.9433 41.92C30.2099 41.0133 30.3433 40.1867 30.3433 39.44C30.3433 37.6267 29.7299 36.2133 28.5033 35.2C27.3299 34.1867 25.5433 33.68 23.1433 33.68C21.1166 33.68 19.2233 34.1333 17.4633 35.04C15.7033 35.9467 14.2633 37.3067 13.1433 39.12L1.38328 32.56C3.46328 29.04 6.47661 26.2133 10.4233 24.08C14.3699 21.9467 19.0899 20.88 24.5833 20.88C28.9033 20.88 32.6899 21.5733 35.9433 22.96C39.1966 24.3467 41.7299 26.32 43.5433 28.88C45.4099 31.44 46.3433 34.4533 46.3433 37.92C46.3433 39.7333 46.1033 41.5467 45.6233 43.36C45.1433 45.12 44.2099 47.0133 42.8233 49.04C41.4899 51.0133 39.4899 53.2267 36.8233 55.68L20.1833 71.04L17.5433 65.44L47.8633 65.44L47.8633 78L4.26327 78Z" fill="#1EFF4F"/>
<path d="M4.26327 78L3.26327 78L3.26327 79L4.26327 79L4.26327 78ZM4.26327 68.08L3.58026 67.3496L3.26327 67.646L3.26327 68.08L4.26327 68.08ZM25.2233 48.48L24.5428 47.7472L24.5403 47.7496L25.2233 48.48ZM28.5033 44.8L27.684 44.2265L27.6742 44.2406L27.6648 44.255L28.5033 44.8ZM29.9433 41.92L28.9839 41.6378L28.9781 41.6575L28.9731 41.6775L29.9433 41.92ZM28.5033 35.2L27.8497 35.9568L27.8579 35.964L27.8664 35.971L28.5033 35.2ZM17.4633 35.04L17.9212 35.929L17.9212 35.929L17.4633 35.04ZM13.1433 39.12L12.6561 39.9933L13.4914 40.4593L13.9941 39.6455L13.1433 39.12ZM1.38328 32.56L0.522349 32.0513L0.000802963 32.9339L0.89612 33.4333L1.38328 32.56ZM10.4233 24.08L10.8988 24.9597L10.8988 24.9597L10.4233 24.08ZM35.9433 22.96L35.5512 23.8799L35.5512 23.8799L35.9433 22.96ZM43.5433 28.88L42.7272 29.4581L42.7353 29.4692L43.5433 28.88ZM45.6233 43.36L46.5881 43.6231L46.59 43.6159L45.6233 43.36ZM42.8233 49.04L41.998 48.4753L41.9947 48.4801L42.8233 49.04ZM36.8233 55.68L36.1462 54.9441L36.145 54.9452L36.8233 55.68ZM20.1833 71.04L19.2787 71.4664L19.86 72.6993L20.8616 71.7748L20.1833 71.04ZM17.5433 65.44L17.5433 64.44L15.9663 64.44L16.6387 65.8664L17.5433 65.44ZM47.8633 65.44L48.8633 65.44L48.8633 64.44L47.8633 64.44L47.8633 65.44ZM47.8633 78L47.8633 79L48.8633 79L48.8633 78L47.8633 78ZM4.26327 78L5.26327 78L5.26327 68.08L4.26327 68.08L3.26327 68.08L3.26327 78L4.26327 78ZM4.26327 68.08L4.94628 68.8104L25.9063 49.2104L25.2233 48.48L24.5403 47.7496L3.58026 67.3496L4.26327 68.08ZM25.2233 48.48L25.9037 49.2128C27.4258 47.7994 28.5851 46.509 29.3417 45.345L28.5033 44.8L27.6648 44.255C27.0348 45.2244 26.0074 46.3873 24.5428 47.7472L25.2233 48.48ZM28.5033 44.8L29.3225 45.3735C30.1088 44.2502 30.6598 43.177 30.9134 42.1625L29.9433 41.92L28.9731 41.6775C28.8001 42.3697 28.3911 43.2164 27.684 44.2265L28.5033 44.8ZM29.9433 41.92L30.9026 42.2022C31.1895 41.227 31.3433 40.3036 31.3433 39.44L30.3433 39.44L29.3433 39.44C29.3433 40.0697 29.2304 40.7997 28.9839 41.6378L29.9433 41.92ZM30.3433 39.44L31.3433 39.44C31.3433 37.3752 30.6306 35.6603 29.1402 34.429L28.5033 35.2L27.8664 35.971C28.8293 36.7664 29.3433 37.8782 29.3433 39.44L30.3433 39.44ZM28.5033 35.2L29.1569 34.4432C27.7253 33.2068 25.6576 32.68 23.1433 32.68L23.1433 33.68L23.1433 34.68C25.4289 34.68 26.9346 35.1666 27.8497 35.9568L28.5033 35.2ZM23.1433 33.68L23.1433 32.68C20.9612 32.68 18.9104 33.1696 17.0053 34.151L17.4633 35.04L17.9212 35.929C19.5362 35.097 21.272 34.68 23.1433 34.68L23.1433 33.68ZM17.4633 35.04L17.0053 34.151C15.0714 35.1473 13.5004 36.6388 12.2925 38.5945L13.1433 39.12L13.9941 39.6455C15.0262 37.9745 16.3351 36.7461 17.9212 35.929L17.4633 35.04ZM13.1433 39.12L13.6304 38.2467L1.87043 31.6867L1.38328 32.56L0.89612 33.4333L12.6561 39.9933L13.1433 39.12ZM1.38328 32.56L2.2442 33.0687C4.22295 29.7201 7.09587 27.0153 10.8988 24.9597L10.4233 24.08L9.94776 23.2003C5.85735 25.4113 2.7036 28.3599 0.522349 32.0513L1.38328 32.56ZM10.4233 24.08L10.8988 24.9597C14.6701 22.9212 19.2191 21.88 24.5833 21.88L24.5833 20.88L24.5833 19.88C18.9608 19.88 14.0698 20.9722 9.94776 23.2003L10.4233 24.08ZM24.5833 20.88L24.5833 21.88C28.7976 21.88 32.446 22.5564 35.5512 23.8799L35.9433 22.96L36.3354 22.0401C32.9339 20.5903 29.0089 19.88 24.5833 19.88L24.5833 20.88ZM35.9433 22.96L35.5512 23.8799C38.6565 25.2035 41.034 27.0676 42.7273 29.458L43.5433 28.88L44.3593 28.302C42.4259 25.5724 39.7367 23.4898 36.3354 22.0401L35.9433 22.96ZM43.5433 28.88L42.7353 29.4692C44.4653 31.8418 45.3433 34.6441 45.3433 37.92L46.3433 37.92L47.3433 37.92C47.3433 34.2626 46.3546 31.0382 44.3513 28.2908L43.5433 28.88ZM46.3433 37.92L45.3433 37.92C45.3433 39.644 45.1152 41.3714 44.6566 43.1041L45.6233 43.36L46.59 43.6159C47.0913 41.722 47.3433 39.8227 47.3433 37.92L46.3433 37.92ZM45.6233 43.36L44.6585 43.0969C44.216 44.7193 43.342 46.5109 41.998 48.4753L42.8233 49.04L43.6486 49.6047C45.0779 47.5158 46.0705 45.5207 46.588 43.6231L45.6233 43.36ZM42.8233 49.04L41.9947 48.4801C40.7211 50.365 38.7821 52.5191 36.1462 54.9441L36.8233 55.68L37.5003 56.4159C40.1978 53.9342 42.2587 51.6617 43.6519 49.5999L42.8233 49.04ZM36.8233 55.68L36.145 54.9452L19.505 70.3052L20.1833 71.04L20.8616 71.7748L37.5016 56.4148L36.8233 55.68ZM20.1833 71.04L21.0878 70.6136L18.4478 65.0136L17.5433 65.44L16.6387 65.8664L19.2787 71.4664L20.1833 71.04ZM17.5433 65.44L17.5433 66.44L47.8633 66.44L47.8633 65.44L47.8633 64.44L17.5433 64.44L17.5433 65.44ZM47.8633 65.44L46.8633 65.44L46.8633 78L47.8633 78L48.8633 78L48.8633 65.44L47.8633 65.44ZM47.8633 78L47.8633 77L4.26327 77L4.26327 78L4.26327 79L47.8633 79L47.8633 78Z" fill="black" mask="url(#path-2-outside-1_478_237)"/>
</svg>
