<svg width="329" height="330" viewBox="0 0 329 330" fill="none" xmlns="http://www.w3.org/2000/svg">
<circle cx="174" cy="175" r="155" fill="black"/>
<circle cx="155" cy="155" r="152.5" fill="#00FF5E" stroke="#222222" stroke-width="5"/>
<g filter="url(#filter0_d_383_97)">
<path d="M198 146.4L168.2 161.2L169 155.6L192.2 169.8L180.8 186.4L158.4 171.2L161 169.8L156 197.6H137L143 169.8L145.8 171.6L118.6 186.2L110.8 170.4L140.8 155.6L140 160.4L116.8 146.4L128.4 129.6L150.4 144.8L147.8 146.4L152.8 118.6H171.6L165.6 146.4L163.2 144.8L190.6 130L198 146.4Z" fill="#222222"/>
</g>
<defs>
<filter id="filter0_d_383_97" x="110.801" y="118.6" width="93.3992" height="83.65" filterUnits="userSpaceOnUse" color-interpolation-filters="sRGB">
<feFlood flood-opacity="0" result="BackgroundImageFix"/>
<feColorMatrix in="SourceAlpha" type="matrix" values="0 0 0 0 0 0 0 0 0 0 0 0 0 0 0 0 0 0 127 0" result="hardAlpha"/>
<feOffset dx="6.2" dy="4.65"/>
<feColorMatrix type="matrix" values="0 0 0 0 0.117647 0 0 0 0 1 0 0 0 0 0.309804 0 0 0 1 0"/>
<feBlend mode="normal" in2="BackgroundImageFix" result="effect1_dropShadow_383_97"/>
<feBlend mode="normal" in="SourceGraphic" in2="effect1_dropShadow_383_97" result="shape"/>
</filter>
</defs>
</svg>
