<svg width="335" height="242" viewBox="0 0 335 242" fill="none" xmlns="http://www.w3.org/2000/svg">
<path d="M215.48 93.6117L112.535 34.4472L132.514 2.96456e-06L330 113.5L132.514 227L112.535 192.553L215.479 133.388L1.7924e-06 133.388L-5.83059e-06 93.6118L215.48 93.6117Z" fill="#1EFF4F"/>
<path d="M218.48 106.612L115.535 47.4472L135.514 13L333 126.5L135.514 240L115.535 205.553L218.479 146.388L3 146.388L2.99999 106.612L218.48 106.612Z" fill="white"/>
<path d="M1.99999 105.611L214.732 105.611L114.167 47.8144L114.67 46.9453L135.148 11.6367L335.007 126.5L135.148 241.363L114.67 206.055L114.167 205.186L214.731 147.389L2 147.389L1.99999 105.611ZM222.226 145.389L116.903 205.92L135.879 238.637L330.993 126.5L135.879 14.3643L116.903 47.081L222.227 107.611L3.99999 107.611L4 145.389L222.226 145.389Z" fill="#222222"/>
</svg>
