<svg width="247" height="461" viewBox="0 0 247 461" fill="none" xmlns="http://www.w3.org/2000/svg">
<path d="M152.971 345.937L212.394 243.013L246.991 262.987L150.295 430.472L132.996 460.434L115.697 430.472L19 262.987L53.5977 243.013L113.021 345.936L113.021 11L152.971 11L152.971 345.937Z" fill="#222222"/>
<path d="M135.338 335.937L194.761 233.013L229.358 252.987L132.662 420.472L115.363 450.434L98.0645 420.472L1.36719 252.987L35.9648 233.013L95.3877 335.936L95.3877 1L135.338 1L135.338 335.937Z" fill="white"/>
<path d="M136.337 0L136.337 332.204L194.394 231.646L230.724 252.621L115.362 452.434L0 252.621L36.3301 231.646L94.3867 332.203L94.3867 0L136.337 0ZM96.3867 339.668L35.5977 234.379L2.73242 253.353L115.362 448.433L227.99 253.353L195.125 234.379L134.337 339.669L134.337 2L96.3867 2L96.3867 339.668Z" fill="black"/>
</svg>
