<svg width="696" height="251" viewBox="0 0 696 251" fill="none" xmlns="http://www.w3.org/2000/svg">
<path d="M695.393 130.755L499.25 246.977L478.885 212.608L581.13 152.024L467.612 153.603L132.692 156.97L236.208 215.355L216.582 250.152L18 138.148L214.29 22.1722L234.612 56.5673L132.291 117.022L245.763 115.881L245.763 115.866L580.678 112.076L477.088 53.8217L496.67 19L695.393 130.755Z" fill="#222222"/>
<path d="M678.393 112.755L482.25 228.977L461.885 194.608L564.13 134.024L450.612 135.603L115.692 138.97L219.208 197.355L199.582 232.152L1 120.148L197.29 4.17218L217.612 38.5673L115.291 99.0219L228.763 97.881L228.763 97.8663L563.678 94.0761L460.088 35.8217L479.67 1L678.393 112.755Z" fill="white"/>
<path d="M481.16 0.489258L681.394 113.094L482.899 230.708L461.515 194.618L561.392 135.437L451.626 136.964H451.622L120.434 140.293L221.57 197.337L200.962 233.875L0 120.529L198.643 3.16406L219.981 39.2812L120.013 98.3447L228.753 97.252V97.2393L560.936 93.4795L459.727 36.5645L480.288 0L481.16 0.489258ZM462.449 35.8008L568.422 95.3955L230.772 99.2158L230.773 99.2324L112.569 100.421L217.241 38.5752L197.938 5.90234L4 120.488L200.201 231.15L218.845 198.096L112.95 138.369L451.598 134.964L568.867 133.333L464.255 195.318L483.6 227.967L677.394 113.138L481.051 2.72363L462.449 35.8008Z" fill="black"/>
</svg>
