<svg width="152" height="268" viewBox="0 0 152 268" fill="none" xmlns="http://www.w3.org/2000/svg">
<path d="M72.2805 55.92C86.8005 55.92 99.3405 58.78 109.9 64.5C120.607 70.22 128.894 78.7267 134.76 90.02C140.774 101.167 143.78 115.1 143.78 131.82C143.78 149.713 140.26 164.967 133.22 177.58C126.327 190.047 116.72 199.58 104.4 206.18C92.2271 212.78 78.0004 216.08 61.7204 216.08C53.2138 216.08 45.0004 215.053 37.0804 213C29.1604 211.093 22.3404 208.38 16.6204 204.86L32.4604 173.62C36.8604 176.7 41.4071 178.827 46.1004 180C50.9404 181.027 55.8538 181.54 60.8404 181.54C72.7204 181.54 82.1804 177.947 89.2204 170.76C96.2604 163.573 99.7804 153.087 99.7804 139.3C99.7804 136.807 99.7804 134.24 99.7805 131.6C99.7805 128.813 99.5605 126.027 99.1205 123.24L109.9 132.26C107.26 137.687 103.814 142.233 99.5605 145.9C95.3071 149.567 90.3204 152.353 84.6004 154.26C78.8804 156.167 72.3538 157.12 65.0204 157.12C55.3404 157.12 46.4671 155.14 38.4004 151.18C30.4804 147.073 24.1004 141.427 19.2604 134.24C14.4204 126.907 12.0004 118.327 12.0004 108.5C12.0005 97.7933 14.7138 88.5533 20.1405 80.78C25.5671 72.86 32.8271 66.7733 41.9205 62.52C51.0138 58.12 61.1338 55.92 72.2805 55.92ZM75.1405 86.94C71.0338 86.94 67.4405 87.7467 64.3605 89.36C61.2805 90.9733 58.7871 93.2467 56.8805 96.18C55.1205 98.9667 54.2405 102.413 54.2405 106.52C54.2405 112.387 56.1471 117.08 59.9605 120.6C63.9204 124.12 69.0538 125.88 75.3605 125.88C79.6138 125.88 83.3538 125.073 86.5805 123.46C89.8071 121.847 92.3005 119.573 94.0605 116.64C95.8205 113.707 96.7005 110.26 96.7005 106.3C96.7005 102.487 95.8205 99.1867 94.0605 96.4C92.3005 93.4667 89.8071 91.1933 86.5805 89.58C83.3538 87.82 79.5405 86.94 75.1405 86.94Z" fill="#222222"/>
<path d="M62.28 48.9199C76.8 48.9199 89.34 51.7799 99.9 57.4999C110.607 63.2199 118.893 71.7266 124.76 83.0199C130.773 94.1666 133.78 108.1 133.78 124.82C133.78 142.713 130.26 157.967 123.22 170.58C116.327 183.047 106.72 192.58 94.4 199.18C82.2266 205.78 68 209.08 51.72 209.08C43.2133 209.08 35 208.053 27.08 206C19.16 204.093 12.34 201.38 6.61997 197.86L22.46 166.62C26.86 169.7 31.4066 171.827 36.1 173C40.94 174.027 45.8533 174.54 50.84 174.54C62.72 174.54 72.18 170.947 79.22 163.76C86.26 156.573 89.78 146.087 89.78 132.3C89.78 129.807 89.78 127.24 89.78 124.6C89.78 121.813 89.56 119.027 89.12 116.24L99.9 125.26C97.26 130.687 93.8133 135.233 89.56 138.9C85.3067 142.567 80.32 145.353 74.6 147.26C68.88 149.167 62.3533 150.12 55.02 150.12C45.34 150.12 36.4667 148.14 28.4 144.18C20.48 140.073 14.1 134.427 9.25999 127.24C4.41999 119.907 1.99999 111.327 1.99999 101.5C1.99999 90.7933 4.71333 81.5533 10.14 73.7799C15.5667 65.8599 22.8267 59.7733 31.92 55.5199C41.0133 51.1199 51.1333 48.9199 62.28 48.9199ZM65.14 79.9399C61.0333 79.9399 57.44 80.7466 54.36 82.3599C51.28 83.9733 48.7867 86.2466 46.88 89.1799C45.12 91.9666 44.24 95.4133 44.24 99.5199C44.24 105.387 46.1467 110.08 49.96 113.6C53.92 117.12 59.0533 118.88 65.36 118.88C69.6133 118.88 73.3533 118.073 76.58 116.46C79.8067 114.847 82.3 112.573 84.06 109.64C85.82 106.707 86.7 103.26 86.7 99.2999C86.7 95.4866 85.82 92.1866 84.06 89.3999C82.3 86.4666 79.8067 84.1933 76.58 82.5799C73.3533 80.8199 69.54 79.9399 65.14 79.9399Z" fill="#1EFF4F"/>
<path d="M-9.54308e-06 101.5C-7.61024e-06 90.4454 2.80628 80.7979 8.49023 72.6494C13.952 64.6781 21.2021 58.5021 30.1973 54.126L31.0732 53.708C40.459 49.1713 50.8733 46.92 62.2803 46.9199C77.0639 46.9199 89.9458 49.8329 100.854 55.7412C111.921 61.6562 120.48 70.4543 126.521 82.0703C132.734 93.5872 135.78 107.871 135.78 124.82C135.78 142.971 132.209 158.574 124.97 171.547L124.971 171.548C117.895 184.345 108.011 194.158 95.3447 200.943C82.8333 207.724 68.2709 211.08 51.7207 211.08C43.0633 211.08 34.6923 210.035 26.6123 207.943C18.5296 205.998 11.5051 203.214 5.57224 199.563L4.00388 198.598L21.7187 163.66L23.6074 164.981C27.8224 167.932 32.1405 169.945 36.5644 171.054C41.2511 172.044 46.0093 172.54 50.8408 172.54L50.8408 174.54L49.9062 174.534C45.2399 174.474 40.638 173.962 36.1006 173C31.4074 171.827 26.8608 169.7 22.4609 166.62L6.62009 197.86C12.34 201.38 19.1602 204.093 27.0801 206C34.5051 207.925 42.1883 208.948 50.1289 209.068L51.7207 209.08C68.0006 209.08 82.2271 205.78 94.4004 199.18C106.72 192.58 116.327 183.047 123.221 170.58C130.041 158.361 133.557 143.664 133.77 126.49L133.78 124.82C133.78 108.1 130.774 94.1662 124.761 83.0196C119.077 72.0793 111.123 63.7539 100.897 58.044L99.9004 57.5C89.3404 51.78 76.8002 48.9199 62.2803 48.9199C51.1339 48.92 41.014 51.1197 31.9209 55.5195L31.0732 55.9238C22.3751 60.1553 15.3977 66.1078 10.1406 73.7803C4.714 81.5536 1.99999 90.7934 1.99999 101.5L2.0078 102.418C2.15438 111.862 4.57204 120.136 9.26073 127.24C14.1007 134.427 20.4806 140.073 28.4004 144.18C36.2149 148.016 44.7866 149.994 54.1152 150.114L55.0205 150.12C61.8955 150.12 68.0615 149.282 73.5185 147.606L74.6006 147.26C80.2846 145.365 85.2437 142.6 89.4795 138.968C88.4956 149.516 85.078 157.78 79.2207 163.76L78.5537 164.423C71.5872 171.168 62.3496 174.54 50.8408 174.54L50.8408 172.54C62.288 172.54 71.1958 169.094 77.792 162.36C82.3778 157.679 85.4329 151.424 86.8564 143.48C83.3599 145.847 79.4837 147.74 75.2334 149.157C69.2709 151.145 62.5239 152.12 55.0205 152.12C45.0592 152.12 35.8812 150.08 27.5195 145.976L27.499 145.966L27.4795 145.955C19.2716 141.699 12.6342 135.83 7.60155 128.357L7.59667 128.35L7.59081 128.342C2.51009 120.644 -1.04583e-05 111.67 -9.54308e-06 101.5ZM84.7002 99.2998C84.7002 95.804 83.8972 92.8872 82.3691 90.4678L82.3457 90.4287C80.7924 87.8399 78.5922 85.8221 75.6865 84.3692L75.6543 84.3526L75.623 84.336C72.743 82.765 69.2717 81.9405 65.1406 81.9404C61.2988 81.9404 58.0341 82.6935 55.2881 84.1318C52.5191 85.5823 50.286 87.6153 48.5664 90.2559C47.0559 92.6513 46.2403 95.7026 46.2402 99.5195C46.2402 104.902 47.9654 109.031 51.3057 112.12C54.8301 115.245 59.4546 116.88 65.3603 116.88L65.3603 118.88C59.0538 118.88 53.9209 117.12 49.9609 113.6C46.1476 110.08 44.2402 105.386 44.2402 99.5195C44.2403 95.4131 45.1209 91.9663 46.8809 89.1797C48.6684 86.4298 50.9713 84.2597 53.79 82.6699L54.3603 82.3604C57.4403 80.747 61.034 79.9404 65.1406 79.9404L65.959 79.9502C70.0149 80.0534 73.5552 80.9302 76.5801 82.5801C79.8067 84.1934 82.3005 86.4671 84.0605 89.4004C85.8204 92.187 86.7002 95.4867 86.7002 99.2998C86.7002 103.26 85.8204 106.706 84.0605 109.64L83.7217 110.183C81.9857 112.855 79.6049 114.948 76.5801 116.46C73.3535 118.073 69.6135 118.88 65.3603 118.88L65.3603 116.88C69.3585 116.88 72.7831 116.123 75.6865 114.671C78.5921 113.218 80.7924 111.2 82.3457 108.611C83.8914 106.035 84.7002 102.955 84.7002 99.2998Z" fill="#222222"/>
</svg>
