<svg width="95" height="171" viewBox="0 0 95 171" fill="none" xmlns="http://www.w3.org/2000/svg">
<path d="M47.5151 137.96C40.7951 137.96 34.0284 137.12 27.2151 135.44C20.4017 133.76 14.5217 131.38 9.57506 128.3L19.5151 107.44C23.5284 110.053 27.8684 112.06 32.5351 113.46C37.2951 114.86 42.0084 115.56 46.6751 115.56C51.3417 115.56 55.1217 114.673 58.0151 112.9C60.9084 111.033 62.3551 108.467 62.3551 105.2C62.3551 103.24 61.7951 101.513 60.6751 100.02C59.5551 98.4333 57.6417 97.2667 54.9351 96.52C52.2284 95.68 48.3551 95.26 43.3151 95.26L16.7151 95.26L21.6151 38L84.0551 38L84.0551 59.42L31.4151 59.42L45.5551 47.24L42.3351 85.88L28.1951 73.7L49.8951 73.7C59.6017 73.7 67.3951 75.1 73.2751 77.9C79.1551 80.6067 83.4484 84.2933 86.1551 88.96C88.8617 93.5333 90.2151 98.7133 90.2151 104.5C90.2151 110.287 88.6751 115.747 85.5951 120.88C82.6084 125.92 77.9884 130.027 71.7351 133.2C65.4817 136.373 57.4084 137.96 47.5151 137.96Z" fill="#222222"/>
<path d="M40.5142 132.96C33.7942 132.96 27.0275 132.12 20.2142 130.44C13.4009 128.76 7.52087 126.38 2.5742 123.3L12.5142 102.44C16.5275 105.053 20.8675 107.06 25.5342 108.46C30.2942 109.86 35.0075 110.56 39.6742 110.56C44.3409 110.56 48.1209 109.673 51.0142 107.9C53.9075 106.033 55.3542 103.467 55.3542 100.2C55.3542 98.24 54.7942 96.5133 53.6742 95.02C52.5542 93.4333 50.6409 92.2667 47.9342 91.52C45.2275 90.68 41.3542 90.26 36.3142 90.26L9.71421 90.26L14.6142 33L77.0542 33L77.0542 54.42L24.4142 54.42L38.5542 42.24L35.3342 80.88L21.1942 68.7L42.8942 68.7C52.6009 68.7 60.3942 70.1 66.2742 72.9C72.1542 75.6067 76.4475 79.2934 79.1542 83.96C81.8609 88.5334 83.2142 93.7134 83.2142 99.5C83.2142 105.287 81.6742 110.747 78.5942 115.88C75.6075 120.92 70.9875 125.027 64.7342 128.2C58.4809 131.373 50.4075 132.96 40.5142 132.96Z" fill="#1EFF4F"/>
<path d="M83.2139 99.5C83.2139 93.7134 81.8609 88.5333 79.1543 83.96C76.4477 79.2934 72.1542 75.6071 66.2744 72.9004C60.5782 70.1879 53.0862 68.7889 43.7988 68.7041L42.8945 68.7002L42.8945 66.7002C52.7522 66.7002 60.8652 68.116 67.1094 71.083C73.2814 73.9241 77.9224 77.8589 80.875 82.9414L81.1435 83.4033C83.8689 88.1968 85.2139 93.5789 85.2139 99.5C85.2139 105.662 83.5693 111.476 80.3096 116.909L80.3086 116.908C77.0929 122.33 72.1606 126.674 65.6396 129.983C59.0147 133.345 50.6003 134.96 40.5137 134.96C33.6255 134.96 26.6982 134.099 19.7353 132.382C12.758 130.661 6.67415 128.209 1.51659 124.998L-1.62699e-05 124.053L11.6914 99.5176L13.6055 100.764C17.4532 103.269 21.6154 105.195 26.0986 106.541L26.958 106.786C31.2519 107.972 35.489 108.56 39.6738 108.56L39.6738 110.56C35.2988 110.56 30.8828 109.944 26.4258 108.714L25.5342 108.46C20.8675 107.06 16.527 105.054 12.5137 102.44L2.5742 123.3C7.52084 126.38 13.4006 128.76 20.2138 130.44C27.027 132.12 33.7938 132.96 40.5137 132.96C50.0978 132.96 57.9745 131.471 64.1426 128.493L64.7344 128.2C70.9876 125.027 75.6071 120.92 78.5937 115.88C81.5774 110.907 83.1166 105.628 83.2099 100.042L83.2139 99.5ZM77.0537 33L14.6143 33L9.71386 90.2598L36.3144 90.2598C41.3543 90.2598 45.228 90.6796 47.9346 91.5195C50.6408 92.2661 52.5538 93.4332 53.6738 95.0195C54.7938 96.5129 55.3545 98.2402 55.3545 100.2L55.3496 100.504C55.2621 103.626 53.8167 106.092 51.0137 107.9C48.1204 109.674 44.3402 110.56 39.6738 110.56L39.6738 108.56C44.0974 108.56 47.4752 107.718 49.956 106.201C52.2968 104.681 53.3544 102.735 53.3545 100.2C53.3545 98.6498 52.921 97.3488 52.0742 96.2197L52.0566 96.1973L52.04 96.1738C51.2833 95.1019 49.8568 94.1254 47.4023 93.4483L47.3721 93.4395L47.3408 93.4297C44.9202 92.6786 41.2834 92.2598 36.3144 92.2598L7.53515 92.2598L12.7783 31L79.0537 31L79.0537 56.4199L39.3789 56.4199L38.5225 66.7002L42.8945 66.7002L42.8945 68.7002L36.3486 68.7002L37.5391 54.4199L77.0537 54.4199L77.0537 33Z" fill="#222222"/>
</svg>
