<svg width="54" height="98" viewBox="0 0 54 98" fill="none" xmlns="http://www.w3.org/2000/svg">
<path d="M8.26131 78L8.26132 68.08L29.2213 48.48C30.7147 47.0933 31.808 45.8667 32.5013 44.8C33.248 43.7333 33.728 42.7733 33.9413 41.92C34.208 41.0133 34.3413 40.1867 34.3413 39.44C34.3413 37.6267 33.728 36.2133 32.5013 35.2C31.328 34.1867 29.5413 33.68 27.1413 33.68C25.1147 33.68 23.2213 34.1333 21.4613 35.04C19.7013 35.9467 18.2613 37.3067 17.1413 39.12L5.38132 32.56C7.46132 29.04 10.4747 26.2133 14.4213 24.08C18.368 21.9467 23.088 20.88 28.5813 20.88C32.9013 20.88 36.688 21.5733 39.9413 22.96C43.1947 24.3467 45.728 26.32 47.5413 28.88C49.408 31.44 50.3413 34.4533 50.3413 37.92C50.3413 39.7333 50.1013 41.5467 49.6213 43.36C49.1413 45.12 48.208 47.0133 46.8213 49.04C45.488 51.0133 43.488 53.2267 40.8213 55.68L24.1813 71.04L21.5413 65.44L51.8613 65.44L51.8613 78L8.26131 78Z" fill="#222222"/>
<path d="M4.26085 72.9999L4.26085 63.0799L25.2209 43.4799C26.7142 42.0932 27.8075 40.8666 28.5009 39.7999C29.2475 38.7332 29.7275 37.7732 29.9409 36.9199C30.2075 36.0132 30.3409 35.1866 30.3409 34.4399C30.3409 32.6266 29.7275 31.2132 28.5009 30.1999C27.3275 29.1866 25.5409 28.6799 23.1409 28.6799C21.1142 28.6799 19.2209 29.1332 17.4609 30.0399C15.7009 30.9466 14.2609 32.3066 13.1409 34.1199L1.38086 27.5599C3.46086 24.0399 6.47419 21.2132 10.4209 19.0799C14.3675 16.9466 19.0875 15.8799 24.5809 15.8799C28.9009 15.8799 32.6875 16.5732 35.9409 17.9599C39.1942 19.3466 41.7275 21.3199 43.5409 23.8799C45.4075 26.4399 46.3409 29.4532 46.3409 32.9199C46.3409 34.7332 46.1009 36.5466 45.6209 38.3599C45.1409 40.1199 44.2075 42.0132 42.8209 44.0399C41.4875 46.0132 39.4875 48.2266 36.8209 50.6799L20.1809 66.0399L17.5409 60.4399L47.8609 60.4399L47.8609 72.9999L4.26085 72.9999Z" fill="#1EFF4F"/>
<path d="M47.8623 60.4404L26.249 60.4404L36.8223 50.6797C39.4888 48.2264 41.4889 46.0133 42.8223 44.04C44.1223 42.14 45.0242 40.3571 45.5273 38.6914L45.6221 38.3604C46.0421 36.7736 46.2786 35.1864 46.3311 33.5996L46.3428 32.9199C46.3428 29.4533 45.4086 26.4399 43.542 23.8799C41.842 21.48 39.5095 19.5953 36.5439 18.2266L35.9424 17.96C32.689 16.5733 28.902 15.8799 24.582 15.8799C19.0888 15.8799 14.3685 16.9468 10.4219 19.0801L9.69336 19.4883C6.10276 21.5695 3.33183 24.2596 1.38183 27.5596L13.1426 34.1201C14.1926 32.4202 15.5233 31.118 17.1357 30.2148L17.4619 30.04C19.2219 29.1334 21.1159 28.6797 23.1426 28.6797L23.585 28.6856C25.7631 28.7449 27.4019 29.2502 28.502 30.2002C29.7286 31.2135 30.3428 32.6271 30.3428 34.4404L30.3359 34.7236C30.3068 35.3945 30.1757 36.1266 29.9424 36.9199L29.8496 37.2451C29.6046 38.0151 29.1552 38.8665 28.5019 39.7998C27.8086 40.8665 26.716 42.0938 25.2227 43.4805L4.26269 63.0801L4.26269 73L47.8623 73L47.8623 60.4404ZM47.3428 32.9199C47.3428 34.8226 47.0902 36.7223 46.5889 38.6162L46.5869 38.6231C46.0698 40.519 45.0777 42.5117 43.6504 44.5986L43.6514 44.5996C42.2585 46.6611 40.1969 48.9328 37.5 51.4141L28.8057 59.4404L48.8623 59.4404L48.8623 74L3.26268 74L3.26269 62.6465L3.57909 62.3496L24.5391 42.75L24.542 42.7471C26.0065 41.3872 27.034 40.2242 27.6641 39.2549L27.6728 39.2402L27.6826 39.2266C28.3896 38.2166 28.7986 37.3699 28.9717 36.6777L28.9775 36.6572L28.9834 36.6377C29.2298 35.7999 29.3427 35.07 29.3428 34.4404C29.3428 32.8786 28.8282 31.7662 27.8652 30.9707L27.8574 30.9639L27.8486 30.957C26.9336 30.1668 25.4281 29.6797 23.1426 29.6797C21.2713 29.6797 19.5349 30.0968 17.9199 30.9287C16.3339 31.7458 15.0252 32.9746 13.9932 34.6455L13.4902 35.459L-2.28238e-06 27.9336L0.521482 27.0508C2.70272 23.3596 5.85701 20.4111 9.94727 18.2002C14.0692 15.9722 18.9598 14.8799 24.582 14.8799C29.0075 14.8799 32.9325 15.5903 36.334 17.04C39.7308 18.4878 42.4177 20.5668 44.3506 23.291L44.7139 23.8115C46.4732 26.4429 47.3428 29.4911 47.3428 32.9199Z" fill="black"/>
</svg>
