<svg width="69" height="122" viewBox="0 0 69 122" fill="none" xmlns="http://www.w3.org/2000/svg">
<path d="M34.1418 98.4C29.2751 98.4 24.4084 97.8 19.5418 96.6C14.7418 95.4 10.5418 93.7 6.94178 91.5L14.1418 76.6C16.9418 78.4667 20.0418 79.9 23.4418 80.9C26.9085 81.9 30.2751 82.4 33.5418 82.4C36.9418 82.4 39.6418 81.7667 41.6418 80.5C43.6418 79.2333 44.6418 77.4333 44.6418 75.1C44.6418 73.0333 43.8085 71.4 42.1418 70.2C40.4751 68.9333 37.7418 68.3 33.9418 68.3L25.6418 68.3L25.6418 55.8L44.4418 35.5L46.3418 42.3L10.5418 42.3L10.5418 27L61.1418 27L61.1418 39.4L42.3418 59.7L32.6418 54.2L38.0418 54.2C46.7751 54.2 53.3751 56.1667 57.8418 60.1C62.3751 63.9667 64.6418 68.9667 64.6418 75.1C64.6418 79.1 63.5418 82.8667 61.3418 86.4C59.2084 89.9333 55.9084 92.8333 51.4418 95.1C46.9751 97.3 41.2084 98.4 34.1418 98.4Z" fill="#222222"/>
<path d="M29.1414 94.4C24.2747 94.4 19.4081 93.8 14.5414 92.6C9.74139 91.4 5.54139 89.7 1.94139 87.5L9.1414 72.6C11.9414 74.4667 15.0414 75.9 18.4414 76.9C21.9081 77.9 25.2747 78.4 28.5414 78.4C31.9414 78.4 34.6414 77.7667 36.6414 76.5C38.6414 75.2333 39.6414 73.4333 39.6414 71.1C39.6414 69.0333 38.8081 67.4 37.1414 66.2C35.4747 64.9333 32.7414 64.3 28.9414 64.3L20.6414 64.3L20.6414 51.8L39.4414 31.5L41.3414 38.3L5.5414 38.3L5.54141 23L56.1414 23L56.1414 35.4L37.3414 55.7L27.6414 50.2L33.0414 50.2C41.7747 50.2 48.3747 52.1667 52.8414 56.1C57.3747 59.9667 59.6414 64.9667 59.6414 71.1C59.6414 75.1 58.5414 78.8667 56.3414 82.4C54.2081 85.9333 50.9081 88.8333 46.4414 91.1C41.9747 93.3 36.2081 94.4 29.1414 94.4Z" fill="#1EFF4F"/>
<path d="M9.97362 71.3516C12.6412 73.13 15.6026 74.5013 18.8652 75.4609C22.2083 76.4247 25.4319 76.9004 28.542 76.9004L28.542 78.4004L27.9277 78.3945C25.0587 78.3398 22.113 77.9023 19.0908 77.082L18.4414 76.9004C15.0415 75.9004 11.9415 74.4662 9.14159 72.5996L1.94139 87.5C5.54139 89.7 9.74198 91.3996 14.542 92.5996C19.1045 93.7246 23.6669 94.3223 28.2295 94.3926L29.1416 94.4004C36.2082 94.4004 41.9747 93.2996 46.4414 91.0996C50.9079 88.833 54.2084 85.9336 56.3418 82.4004C58.5418 78.8671 59.6416 75.0996 59.6416 71.0996C59.6415 64.9665 57.375 59.9662 52.8418 56.0996C49.9974 53.5949 46.2875 51.8892 41.7129 50.9795L56.1416 35.4004L56.1416 23L5.54199 23L5.54199 38.2998L33.1445 38.2998L20.6416 51.7998L20.6416 64.2998L28.9414 64.2998C32.7414 64.2998 35.4749 64.9336 37.1416 66.2002C38.8082 67.4001 39.6415 69.0331 39.6416 71.0996C39.6416 73.4329 38.6416 75.2333 36.6416 76.5L36.2588 76.7305C34.3018 77.8437 31.7294 78.4004 28.542 78.4004L28.542 76.9004C31.7753 76.9004 34.162 76.2944 35.8389 75.2324C37.4123 74.2359 38.1416 72.9099 38.1416 71.0996C38.1415 69.512 37.5377 68.3329 36.2656 67.417L36.25 67.4063L36.2344 67.3945C34.9683 66.4323 32.6481 65.7998 28.9414 65.7998L19.1416 65.7998L19.1416 51.2119L29.7109 39.7998L4.04199 39.7998L4.04199 21.5L57.6416 21.5L57.6416 35.9883L44.5537 50.1182C48.2008 51.1482 51.2995 52.7497 53.8144 54.959C58.6928 59.12 61.1415 64.5422 61.1416 71.0996C61.1416 75.385 59.9596 79.4186 57.625 83.1748C55.3182 86.9954 51.7835 90.071 47.1201 92.4375L47.1045 92.4453C42.3638 94.7803 36.3481 95.9004 29.1416 95.9004C24.1504 95.9004 19.1632 95.2847 14.1826 94.0566L14.1777 94.0557C9.25506 92.825 4.90905 91.0719 1.15917 88.7803L-1.16397e-05 88.0713L8.54101 70.3965L9.97362 71.3516Z" fill="#222222"/>
</svg>
