<svg width="110" height="195" viewBox="0 0 110 195" fill="none" xmlns="http://www.w3.org/2000/svg">
<path d="M62.8405 157.24C52.3872 157.24 43.2672 155.16 35.4805 151C27.8005 146.84 21.7739 140.653 17.4005 132.44C13.1339 124.227 11.0005 114.093 11.0005 102.04C11.0005 89.0267 13.5072 77.9867 18.5205 68.92C23.6405 59.7467 30.6272 52.76 39.4805 47.96C48.4405 43.16 58.7872 40.76 70.5205 40.76C76.8139 40.76 82.8405 41.5067 88.6005 43C94.4672 44.3867 99.4272 46.36 103.481 48.92L91.9605 71.64C88.7605 69.4 85.4005 67.9067 81.8805 67.16C78.4672 66.3067 74.9472 65.88 71.3205 65.88C62.6805 65.88 55.7472 68.4933 50.5205 73.72C45.4005 78.9467 42.8405 86.5733 42.8405 96.6C42.8405 98.4133 42.8405 100.333 42.8405 102.36C42.9472 104.28 43.1605 106.253 43.4805 108.28L35.4805 101.72C37.6139 97.7733 40.1739 94.4667 43.1605 91.8C46.2539 89.1333 49.8805 87.1067 54.0405 85.72C58.3072 84.3333 63.0539 83.64 68.2805 83.64C75.3205 83.64 81.7205 85.1333 87.4805 88.12C93.3472 91 98.0405 95.1067 101.561 100.44C105.081 105.667 106.841 111.853 106.841 119C106.841 126.787 104.867 133.56 100.921 139.32C96.9739 144.973 91.6939 149.4 85.0805 152.6C78.4672 155.693 71.0539 157.24 62.8405 157.24ZM60.9205 134.68C63.9072 134.68 66.5205 134.093 68.7605 132.92C71.1072 131.747 72.9205 130.093 74.2005 127.96C75.4805 125.827 76.1205 123.32 76.1205 120.44C76.1205 116.173 74.6805 112.76 71.8005 110.2C69.0272 107.64 65.3472 106.36 60.7605 106.36C57.6672 106.36 54.9472 106.947 52.6005 108.12C50.3605 109.293 48.5472 110.947 47.1605 113.08C45.8805 115.213 45.2405 117.72 45.2405 120.6C45.2405 123.373 45.8805 125.827 47.1605 127.96C48.4405 129.987 50.2539 131.64 52.6005 132.92C54.9472 134.093 57.7205 134.68 60.9205 134.68Z" fill="#222222"/>
<path d="M53.84 147.24C43.3867 147.24 34.2666 145.16 26.48 141C18.8 136.84 12.7733 130.653 8.39998 122.44C4.13332 114.226 1.99999 104.093 1.99999 92.0398C1.99999 79.0264 4.50666 67.9864 9.51999 58.9198C14.64 49.7464 21.6267 42.7598 30.48 37.9598C39.44 33.1598 49.7867 30.7598 61.52 30.7598C67.8133 30.7598 73.84 31.5064 79.6 32.9998C85.4667 34.3864 90.4267 36.3598 94.48 38.9198L82.96 61.6398C79.76 59.3998 76.4 57.9064 72.88 57.1598C69.4667 56.3064 65.9467 55.8798 62.32 55.8798C53.68 55.8798 46.7467 58.4931 41.52 63.7198C36.4 68.9464 33.84 76.5731 33.84 86.5998C33.84 88.4131 33.84 90.3331 33.84 92.3598C33.9467 94.2798 34.16 96.2531 34.48 98.2798L26.48 91.7198C28.6133 87.7731 31.1733 84.4664 34.16 81.7998C37.2533 79.1331 40.88 77.1064 45.04 75.7198C49.3067 74.3331 54.0533 73.6398 59.28 73.6398C66.32 73.6398 72.72 75.1331 78.48 78.1198C84.3467 80.9998 89.04 85.1064 92.56 90.4398C96.08 95.6664 97.84 101.853 97.84 109C97.84 116.786 95.8666 123.56 91.92 129.32C87.9733 134.973 82.6933 139.4 76.08 142.6C69.4667 145.693 62.0533 147.24 53.84 147.24ZM51.92 124.68C54.9066 124.68 57.52 124.093 59.76 122.92C62.1067 121.746 63.92 120.093 65.2 117.96C66.48 115.826 67.12 113.32 67.12 110.44C67.12 106.173 65.68 102.76 62.8 100.2C60.0267 97.6398 56.3467 96.3598 51.76 96.3598C48.6667 96.3598 45.9467 96.9464 43.6 98.1198C41.36 99.2931 39.5467 100.946 38.16 103.08C36.88 105.213 36.24 107.72 36.24 110.6C36.24 113.373 36.88 115.826 38.16 117.96C39.44 119.986 41.2533 121.64 43.6 122.92C45.9467 124.093 48.72 124.68 51.92 124.68Z" fill="#1EFF4F"/>
<path d="M-1.10643e-05 92.04C-8.74466e-06 78.7734 2.55557 67.3816 7.76953 57.9521L7.77343 57.9453C13.0698 48.456 20.325 41.1909 29.5264 36.2022L29.5352 36.1973C38.8276 31.2192 49.5079 28.7598 61.5195 28.7598C67.957 28.7598 74.1385 29.5229 80.0586 31.0537C86.0876 32.4788 91.2663 34.5254 95.5479 37.2295L97.0869 38.2012L83.7012 64.6006L81.8125 63.2783C78.8137 61.1792 75.7001 59.8025 72.4648 59.1162L72.4297 59.1094L72.3945 59.1006C69.1447 58.2881 65.7875 57.8799 62.3193 57.8799C54.1216 57.8799 47.7349 60.3405 42.9482 65.1191C39.9254 68.205 37.8232 72.276 36.7256 77.4248C39.0705 75.9478 41.6329 74.747 44.4072 73.8223L44.4141 73.8203L44.4219 73.8184C48.9178 72.3572 53.8768 71.6397 59.2793 71.6397C66.5959 71.6397 73.3025 73.1915 79.3603 76.3242C85.5336 79.3547 90.499 83.693 94.2187 89.3233L94.5664 89.8506C98.1036 95.3352 99.8398 101.745 99.8398 109C99.8398 117.142 97.7699 124.32 93.5693 130.45L93.5644 130.458L93.5596 130.465C89.4041 136.417 83.8516 141.061 76.9512 144.4L76.9385 144.406L76.9267 144.411C70.0168 147.643 62.3091 149.24 53.8398 149.24C43.1182 149.24 33.6627 147.105 25.5371 142.764L25.5273 142.759C17.4789 138.399 11.1791 131.916 6.63377 123.38L6.62987 123.371L6.62498 123.362C2.17247 114.791 -8.03721e-06 104.321 -1.10643e-05 92.04ZM65.1191 110.44C65.1191 106.677 63.875 103.832 61.4707 101.694L61.457 101.683L61.4433 101.67C59.1155 99.5211 55.9575 98.3604 51.7598 98.3604C48.9249 98.3604 46.5229 98.8959 44.501 99.9053C42.5914 100.911 41.0516 102.313 39.8594 104.135C38.8035 105.906 38.2393 108.037 38.2392 110.6C38.2392 113.046 38.7995 115.131 39.8662 116.915C40.9375 118.602 42.4675 120.017 44.5234 121.145C46.5325 122.143 48.9774 122.68 51.9199 122.68L51.9199 124.68L51.3242 124.673C48.3744 124.604 45.7995 124.02 43.5996 122.92C41.2529 121.64 39.4392 119.987 38.1592 117.96C36.8792 115.827 36.2392 113.373 36.2392 110.6C36.2393 107.72 36.8793 105.213 38.1592 103.08C39.5458 100.947 41.3596 99.2935 43.5996 98.1201C45.9463 96.9468 48.6664 96.3604 51.7598 96.3604L52.1865 96.3633C56.5751 96.4407 60.113 97.7201 62.7998 100.2C65.6796 102.76 67.1191 106.174 67.1191 110.44L67.1123 110.976C67.0373 113.632 66.3992 115.96 65.1992 117.96C63.9192 120.093 62.1063 121.747 59.7597 122.92C57.5198 124.093 54.9064 124.68 51.9199 124.68L51.9199 122.68C54.6416 122.68 56.9261 122.147 58.832 121.148L58.8652 121.131C60.8911 120.118 62.411 118.72 63.4844 116.931C64.55 115.155 65.1191 113.016 65.1191 110.44ZM2.00585 93.1641C2.13498 104.725 4.26603 114.484 8.3994 122.44C12.7727 130.654 18.7996 136.84 26.4795 141C34.0228 145.03 42.8174 147.108 52.8633 147.234L53.8398 147.24C62.053 147.24 69.4659 145.693 76.0791 142.6C82.4857 139.5 87.6418 135.249 91.5459 129.847L91.9199 129.32C95.7433 123.74 97.7146 117.209 97.834 109.727L97.8398 109C97.8398 101.853 96.0794 95.667 92.5596 90.4404C89.0396 85.1071 84.3462 81.0001 78.4795 78.1201C72.7195 75.1335 66.3193 73.6397 59.2793 73.6397C54.0529 73.6397 49.3065 74.3332 45.04 75.7197C40.88 77.1064 37.2525 79.1331 34.1592 81.7998C34.1202 81.8346 34.0818 81.8702 34.043 81.9053C34.7394 74.1597 37.231 68.0976 41.5195 63.7197C46.7461 58.4932 53.6795 55.8799 62.3193 55.8799C65.946 55.8799 69.4665 56.3068 72.8799 57.1602C76.3998 57.9069 79.7601 59.3997 82.96 61.6397L94.4795 38.9199C90.6794 36.5199 86.0824 34.6354 80.6885 33.2666L79.5996 33C73.8396 31.5067 67.8129 30.7598 61.5195 30.7598C49.7862 30.7598 39.4395 33.16 30.4795 37.96C21.6262 42.76 14.6395 49.7466 9.51953 58.9199C4.50619 67.9866 1.99999 79.0267 1.99999 92.04L2.00585 93.1641Z" fill="#222222"/>
</svg>
