<svg width="122" height="219" viewBox="0 0 122 219" fill="none" xmlns="http://www.w3.org/2000/svg">
<path d="M33.0613 174L82.2013 61.14L91.7413 76.26L27.8413 76.26L42.4213 59.88L42.4213 95.7L12.0013 95.7L12.0013 48L116.401 48L116.401 70.32L71.9413 174L33.0613 174Z" fill="#222222"/>
<path d="M23.0619 168L72.202 55.14L81.742 70.26L17.8419 70.26L32.422 53.88L32.4219 89.7L2.00194 89.7L2.00195 42L106.402 42L106.402 64.32L61.9419 168L23.0619 168Z" fill="#1EFF4F"/>
<path d="M106.4 42L2 42L1.99999 89.7002L32.4199 89.7002L32.4199 70.2598L65.6172 70.2598L23.0605 168L61.9404 168L106.4 64.3203L106.4 42ZM108.4 64.7305L63.2588 170L20.0078 170L62.5644 72.2598L34.4199 72.2598L34.4199 91.7002L-9.03955e-06 91.7002L0 40L108.4 40L108.4 64.7305Z" fill="#222222"/>
</svg>
