<svg width="31" height="73" viewBox="0 0 31 73" fill="none" xmlns="http://www.w3.org/2000/svg">
<path d="M13.7987 58L13.7987 20.26L18.8987 25.18L5.99867 25.18L5.99867 16L25.6787 16L25.6787 58L13.7987 58Z" fill="#222222"/>
<path d="M8.79804 54L8.79805 16.26L13.898 21.18L0.998045 21.18L0.998047 12L20.678 12L20.678 54L8.79804 54Z" fill="#1EFF4F"/>
<path d="M20.6797 12L1 12L0.999998 21.1797L8.7998 21.1797L8.7998 54L20.6797 54L20.6797 12ZM21.6797 55L7.7998 55L7.7998 22.1797L-1.95472e-06 22.1797L0 11L21.6797 11L21.6797 55Z" fill="black"/>
</svg>
