<svg width="92" height="146" viewBox="0 0 92 146" fill="none" xmlns="http://www.w3.org/2000/svg">
<path d="M9.49975 99.92L9.49975 84.44L47.1798 32L71.7798 32L35.1798 84.44L23.8998 81.08L89.5398 81.08L89.5397 99.92L9.49975 99.92ZM53.8997 116L53.8997 99.92L54.6198 81.08L54.6198 66.8L77.0598 66.8L77.0597 116L53.8997 116Z" fill="#222222"/>
<path d="M1.49999 94.92L1.49999 79.44L39.18 27L63.78 27L27.18 79.44L15.9 76.08L81.54 76.08L81.54 94.92L1.49999 94.92ZM45.9 111L45.9 94.92L46.62 76.08L46.62 61.8L69.06 61.8L69.06 111L45.9 111Z" fill="#1EFF4F"/>
<path d="M81.54 76.0801L69.0596 76.0801L69.0596 61.7998L46.6201 61.7998L46.6201 76.0801L29.5254 76.0801L63.7793 27L39.1797 27L1.49999 79.4404L1.49999 94.9199L45.8994 94.9199L45.8994 111L69.0596 111L69.0596 94.9199L81.54 94.9199L81.54 76.0801ZM70.5596 74.5801L83.04 74.5801L83.04 96.4199L70.5596 96.4199L70.5596 112.5L44.3994 112.5L44.3994 96.4199L-1.24e-05 96.4199L-9.34672e-06 78.957L0.281241 78.5645L38.4102 25.5L66.6562 25.5L32.4014 74.5801L45.1201 74.5801L45.1201 60.2998L70.5596 60.2998L70.5596 74.5801Z" fill="#222222"/>
</svg>
