<svg width="139" height="244" viewBox="0 0 139 244" fill="none" xmlns="http://www.w3.org/2000/svg">
<path d="M71.8 196.8C59.6666 196.8 49.0666 195 40 191.4C30.9333 187.8 23.8 182.733 18.6 176.2C13.5333 169.533 11 161.733 11 152.8C11 144 13.5333 136.533 18.6 130.4C23.8 124.133 30.9333 119.4 40 116.2C49.2 112.867 59.8 111.2 71.8 111.2C83.8 111.2 94.3333 112.867 103.4 116.2C112.6 119.4 119.733 124.133 124.8 130.4C130 136.533 132.6 144 132.6 152.8C132.6 161.733 130.067 169.533 125 176.2C119.933 182.733 112.8 187.8 103.6 191.4C94.5333 195 83.9333 196.8 71.8 196.8ZM71.8 169C78.2 169 83.2666 167.467 87 164.4C90.8666 161.333 92.8 157.067 92.8 151.6C92.8 146.267 90.8666 142.067 87 139C83.2666 135.8 78.2 134.2 71.8 134.2C65.4 134.2 60.2666 135.8 56.4 139C52.6666 142.067 50.8 146.267 50.8 151.6C50.8 157.067 52.6666 161.333 56.4 164.4C60.2666 167.467 65.4 169 71.8 169ZM71.8 130.8C60.8666 130.8 51.2 129.267 42.8 126.2C34.5333 123.133 28 118.733 23.2 113C18.4 107.133 16 100.133 16 92C16 83.6 18.3333 76.4 23 70.4C27.8 64.4 34.4 59.7333 42.8 56.4C51.2 52.9333 60.8667 51.2 71.8 51.2C82.8667 51.2 92.5333 52.9333 100.8 56.4C109.2 59.7333 115.733 64.4 120.4 70.4C125.2 76.4 127.6 83.6 127.6 92C127.6 100.133 125.2 107.133 120.4 113C115.733 118.733 109.2 123.133 100.8 126.2C92.4 129.267 82.7333 130.8 71.8 130.8ZM71.8 108.4C76.8667 108.4 80.9333 107.133 84 104.6C87.0667 101.933 88.6 98.3333 88.6 93.8C88.6 89 87 85.3333 83.8 82.8C80.7333 80.2667 76.7333 79 71.8 79C66.8667 79 62.8667 80.2667 59.8 82.8C56.7333 85.3333 55.2 89 55.2 93.8C55.2 98.3333 56.7333 101.933 59.8 104.6C62.8667 107.133 66.8667 108.4 71.8 108.4Z" fill="#222222"/>
<path d="M62.8 188.8C50.6666 188.8 40.0666 187 31 183.4C21.9333 179.8 14.8 174.734 9.59998 168.2C4.53331 161.534 1.99998 153.734 1.99998 144.8C1.99998 136 4.53332 128.534 9.59999 122.4C14.8 116.134 21.9333 111.4 31 108.2C40.2 104.867 50.8 103.2 62.8 103.2C74.8 103.2 85.3333 104.867 94.4 108.2C103.6 111.4 110.733 116.134 115.8 122.4C121 128.534 123.6 136 123.6 144.8C123.6 153.734 121.067 161.534 116 168.2C110.933 174.734 103.8 179.8 94.6 183.4C85.5333 187 74.9333 188.8 62.8 188.8ZM62.8 161C69.2 161 74.2667 159.467 78 156.4C81.8667 153.334 83.8 149.067 83.8 143.6C83.8 138.267 81.8667 134.067 78 131C74.2667 127.8 69.2 126.2 62.8 126.2C56.4 126.2 51.2667 127.8 47.4 131C43.6667 134.067 41.8 138.267 41.8 143.6C41.8 149.067 43.6667 153.334 47.4 156.4C51.2666 159.467 56.4 161 62.8 161ZM62.8 122.8C51.8667 122.8 42.2 121.267 33.8 118.2C25.5333 115.134 19 110.734 14.2 105C9.39999 99.1335 6.99999 92.1335 6.99999 84.0002C7 75.6002 9.33333 68.4002 14 62.4002C18.8 56.4002 25.4 51.7335 33.8 48.4002C42.2 44.9335 51.8667 43.2002 62.8 43.2002C73.8667 43.2002 83.5333 44.9335 91.8 48.4002C100.2 51.7335 106.733 56.4002 111.4 62.4002C116.2 68.4002 118.6 75.6002 118.6 84.0002C118.6 92.1336 116.2 99.1336 111.4 105C106.733 110.734 100.2 115.134 91.8 118.2C83.4 121.267 73.7333 122.8 62.8 122.8ZM62.8 100.4C67.8667 100.4 71.9333 99.1335 75 96.6002C78.0667 93.9335 79.6 90.3335 79.6 85.8002C79.6 81.0002 78 77.3335 74.8 74.8002C71.7333 72.2669 67.7333 71.0002 62.8 71.0002C57.8667 71.0002 53.8667 72.2669 50.8 74.8002C47.7333 77.3335 46.2 81.0002 46.2 85.8002C46.2 90.3335 47.7333 93.9335 50.8 96.6002C53.8667 99.1335 57.8667 100.4 62.8 100.4Z" fill="#1EFF4F"/>
<path d="M118.6 84C118.6 75.6002 116.2 68.4003 111.4 62.4004C106.734 56.4004 100.2 51.7337 91.7998 48.4004C83.7914 45.042 74.4692 43.31 63.833 43.2051L62.7998 43.2002C51.8666 43.2002 42.1998 44.9337 33.7998 48.4004C25.3999 51.7337 18.7999 56.4005 14 62.4004L13.5693 62.9658C9.18971 68.851 6.99999 75.8624 6.99999 84L7.00683 84.7588C7.15207 92.5695 9.55011 99.3166 14.2002 105C16.4492 107.686 19.0788 110.08 22.0889 112.181C17.1202 114.948 12.9567 118.355 9.5996 122.4C4.5332 128.534 2.00002 136 1.99998 144.8C1.99998 153.733 4.53295 161.534 9.59959 168.2C14.7996 174.734 21.9333 179.8 31 183.4C40.0666 187 50.6666 188.8 62.7998 188.8C74.9329 188.8 85.533 187 94.5996 183.4C103.512 179.913 110.485 175.049 115.519 168.809L116 168.2C121.067 161.534 123.6 153.733 123.6 144.8C123.6 136 121 128.534 115.8 122.4C112.554 118.386 108.459 115.001 103.517 112.245C106.563 110.129 109.191 107.714 111.4 105C116.05 99.3166 118.448 92.5694 118.593 84.7588L118.6 84ZM81.7998 143.6C81.7997 138.82 80.1024 135.221 76.7568 132.567L76.3877 132.26C73.1389 129.62 68.6795 128.2 62.7998 128.2C56.7346 128.2 52.0935 129.712 48.6748 132.541L48.6699 132.546C45.451 135.19 43.7999 138.794 43.7998 143.6C43.7998 148.554 45.4619 152.216 48.665 154.85C52.083 157.551 56.7288 159 62.7998 159L62.7998 161C56.4001 161 51.2669 159.467 47.4004 156.4C43.667 153.334 41.7998 149.066 41.7998 143.6C41.7999 138.433 43.5521 134.33 47.0556 131.291L47.4004 131C51.267 127.8 56.4 126.2 62.7998 126.2L63.3965 126.205C69.5156 126.302 74.3834 127.9 78 131C81.8666 134.067 83.7997 138.266 83.7998 143.6C83.7998 149.066 81.8666 153.334 78 156.4L77.6465 156.683C73.949 159.561 69 161 62.7998 161L62.7998 159C68.8881 159 73.4566 157.544 76.7304 154.855L76.7441 154.844L76.7568 154.833C80.0893 152.19 81.7998 148.531 81.7998 143.6ZM77.5996 85.7998C77.5996 81.4905 76.1922 78.4531 73.5586 76.3682L73.542 76.3555L73.5264 76.3418C70.8978 74.1704 67.3833 73 62.7998 73C58.2166 73 54.7027 74.1706 52.0742 76.3418C49.563 78.4163 48.2002 81.4605 48.2002 85.7998C48.2002 89.8131 49.5258 92.8259 52.082 95.0635C54.7097 97.2309 58.2208 98.4004 62.7998 98.4004L62.7998 100.4L62.3398 100.396C57.6174 100.32 53.7705 99.0537 50.7998 96.5996C47.8293 94.0164 46.297 90.5575 46.2041 86.2227L46.2002 85.7998C46.2002 80.9999 47.7332 77.3331 50.7998 74.7998C53.8664 72.2665 57.8666 71 62.7998 71L63.2598 71.0039C67.9823 71.0806 71.829 72.3458 74.7998 74.7998C77.9998 77.3331 79.5996 80.9999 79.5996 85.7998C79.5996 90.3331 78.0665 93.933 75 96.5996C71.9333 99.133 67.8665 100.4 62.7998 100.4L62.7998 98.4004C67.5211 98.4004 71.0902 97.226 73.708 95.0713C76.2705 92.8329 77.5996 89.8181 77.5996 85.7998ZM120.6 84C120.6 92.5588 118.063 100.016 112.948 106.267C111.231 108.376 109.28 110.305 107.103 112.059C111.089 114.611 114.503 117.624 117.325 121.106C122.861 127.636 125.6 135.574 125.6 144.8C125.6 154.139 122.942 162.372 117.593 169.41L117.586 169.418L117.58 169.426C112.253 176.295 104.799 181.557 95.3291 185.263L95.3281 185.262C85.9791 188.972 75.1222 190.8 62.7998 190.8C50.4733 190.8 39.6128 188.972 30.2617 185.259C20.9258 181.552 13.4866 176.295 8.03513 169.445L8.00779 169.41C2.65839 162.371 -1.97469e-05 154.139 -1.81139e-05 144.8C2.056e-05 135.588 2.66303 127.656 8.0576 121.126L8.06053 121.123C10.9796 117.605 14.4653 114.563 18.5019 111.99C16.3495 110.259 14.4023 108.358 12.666 106.284L12.6523 106.267C7.53784 100.016 4.99999 92.5588 4.99999 84C4.99999 75.2048 7.4523 67.5601 12.4209 61.1719L12.4385 61.1504C17.4861 54.8409 24.3833 49.9889 33.0371 46.5508L33.8545 46.2207C42.3445 42.858 52.0048 41.2002 62.7998 41.2002C74.0558 41.2002 83.9835 42.9608 92.5371 46.541L92.5381 46.541C101.197 49.977 108.039 54.8304 112.962 61.1504L113.434 61.7529C118.228 68.0181 120.6 75.4663 120.6 84Z" fill="#222222"/>
</svg>
