<svg width="347" height="238" viewBox="0 0 347 238" fill="none" xmlns="http://www.w3.org/2000/svg">
<path d="M346.839 23.4277L345.904 237.426L282.505 237.148L283.222 73.0498L244.222 72.8799L244.439 22.9805L346.839 23.4277Z" fill="#222222"/>
<path d="M85.3418 22.2861L84.9971 101.185L161.996 101.521L162.341 22.6221L225.74 22.8984L224.806 236.896L161.406 236.62L161.764 154.721L84.7646 154.384L84.4072 236.284L21.0078 236.007L21.9424 22.0088L85.3418 22.2861Z" fill="#222222"/>
<path d="M327.839 3.42773L326.904 217.426L263.505 217.148L264.222 53.0498L225.222 52.8799L225.439 2.98047L327.839 3.42773Z" fill="#00FF5E"/>
<path d="M66.3418 2.28613L65.9971 81.1846L142.996 81.5215L143.341 2.62207L206.74 2.89844L205.806 216.896L142.406 216.62L142.764 134.721L65.7646 134.384L65.4072 216.284L2.00781 216.007L2.94238 2.00879L66.3418 2.28613Z" fill="#00FF5E"/>
<path d="M329.849 1.43652L328.896 219.435L261.497 219.14L262.214 55.041L223.214 54.8711L223.449 0.97168L329.849 1.43652ZM68.3516 0.294922L68.0059 79.1924L141.005 79.5127L141.351 0.613281L208.75 0.907227L207.798 218.905L140.398 218.611L140.756 136.712L67.7568 136.392L67.3994 218.293L0 217.998L0.952148 0L68.3516 0.294922ZM225.223 52.8799L264.223 53.0498L263.506 217.148L326.905 217.426L327.84 3.42773L225.44 2.98047L225.223 52.8799ZM2.00879 216.007L65.4082 216.284L65.7656 134.384L142.765 134.721L142.407 216.62L205.807 216.896L206.741 2.89844L143.342 2.62207L142.997 81.5215L65.998 81.1846L66.3428 2.28613L2.94336 2.00879L2.00879 216.007Z" fill="black"/>
</svg>
