<svg width="118" height="116" viewBox="0 0 118 116" fill="none" xmlns="http://www.w3.org/2000/svg">
<circle cx="64.1113" cy="62.1114" r="50.8804" transform="rotate(2.57089 64.1113 62.1114)" fill="#222222"/>
<path d="M103.94 55.3937C102.68 83.4658 78.9012 105.201 50.8291 103.941C22.7569 102.68 1.02174 78.9013 2.28219 50.8291C3.54265 22.757 27.3214 1.0218 55.3936 2.28226C83.4658 3.54272 105.201 27.3215 103.94 55.3937Z" fill="#00FF5E"/>
<path d="M101.943 55.3035C103.153 28.335 82.2719 5.49113 55.3034 4.28022C28.3351 3.06959 5.49135 23.9501 4.2802 50.9184C3.0693 77.8869 23.9498 100.731 50.9183 101.943L50.8286 103.941L50.1722 103.907C22.4186 102.309 1.03161 78.6815 2.28221 50.8287C3.54291 22.7569 27.3213 1.02206 55.3931 2.28224C83.4651 3.54269 105.201 27.3212 103.941 55.3932L103.907 56.0505C102.308 83.8041 78.6814 105.191 50.8286 103.941L50.9183 101.943C77.887 103.153 100.732 82.2722 101.943 55.3035Z" fill="#222222"/>
<g filter="url(#filter0_d_343_25)">
<path d="M47.5035 43.496L53.2274 43.4532L53.3789 63.6891L47.655 63.732L47.5035 43.496ZM39.8498 63.7904L34.1259 63.8333L33.9743 43.5974L39.6982 43.5545L39.8498 63.7904ZM48.0007 55.8369L39.3859 55.9014L39.3504 51.1605L47.9651 51.0959L48.0007 55.8369ZM65.7451 64.0012C63.8564 64.0154 62.2058 63.6519 60.7933 62.9108C59.4 62.1696 58.3028 61.06 57.5015 59.5819C56.7195 58.1037 56.3203 56.2757 56.304 54.098C56.2864 51.7467 56.7244 49.7487 57.6179 48.1037C58.5306 46.4394 59.7835 45.1676 61.3766 44.2883C62.9889 43.409 64.8551 42.9613 66.9751 42.9455C68.1121 42.9369 69.202 43.0637 70.2448 43.3257C71.3066 43.5683 72.2054 43.9181 72.9413 44.3752L70.8906 48.4958C70.3094 48.0954 69.7003 47.8301 69.0633 47.7C68.4454 47.5504 67.8089 47.4781 67.1536 47.483C65.5925 47.4947 64.3434 47.9763 63.4061 48.9277C62.4881 49.8789 62.0359 51.2604 62.0495 53.072C62.0519 53.3996 62.0545 53.7465 62.0573 54.1127C62.0791 54.4594 62.1203 54.8157 62.1809 55.1814L60.7266 54.007C61.1067 53.291 61.5648 52.6901 62.1008 52.2043C62.6561 51.7183 63.3086 51.3472 64.0583 51.091C64.8273 50.8347 65.684 50.703 66.6284 50.696C67.9003 50.6864 69.0587 50.9476 70.1034 51.4794C71.1673 51.9918 72.0209 52.7275 72.6641 53.6863C73.3071 54.6259 73.6335 55.7413 73.6432 57.0326C73.6537 58.4394 73.3063 59.6659 72.601 60.7119C71.8956 61.7387 70.9476 62.5457 69.7571 63.1328C68.5664 63.7006 67.229 63.9901 65.7451 64.0012ZM65.3676 59.9277C65.9073 59.9237 66.3786 59.8142 66.7818 59.5991C67.2042 59.384 67.5296 59.0828 67.758 58.6956C67.9863 58.3084 68.0986 57.8547 68.0947 57.3343C68.0889 56.5634 67.8241 55.9486 67.3003 55.49C66.7958 55.0312 66.1291 54.8049 65.3004 54.8111C64.7415 54.8153 64.2509 54.925 63.8285 55.1402C63.4253 55.3552 63.0999 55.6564 62.8523 56.0437C62.6239 56.4309 62.5117 56.8847 62.5156 57.405C62.5193 57.9061 62.6383 58.3485 62.8724 58.7322C63.1064 59.0966 63.4363 59.3929 63.862 59.621C64.2876 59.8298 64.7895 59.9321 65.3676 59.9277Z" fill="#010101"/>
</g>
<defs>
<filter id="filter0_d_343_25" x="33.9707" y="42.8964" width="42.0374" height="23.0762" filterUnits="userSpaceOnUse" color-interpolation-filters="sRGB">
<feFlood flood-opacity="0" result="BackgroundImageFix"/>
<feColorMatrix in="SourceAlpha" type="matrix" values="0 0 0 0 0 0 0 0 0 0 0 0 0 0 0 0 0 0 127 0" result="hardAlpha"/>
<feOffset dx="2.31274" dy="1.73456"/>
<feColorMatrix type="matrix" values="0 0 0 0 0.117647 0 0 0 0 1 0 0 0 0 0.309804 0 0 0 1 0"/>
<feBlend mode="normal" in2="BackgroundImageFix" result="effect1_dropShadow_343_25"/>
<feBlend mode="normal" in="SourceGraphic" in2="effect1_dropShadow_343_25" result="shape"/>
</filter>
</defs>
</svg>
