<svg width="40" height="40" viewBox="0 0 40 40" fill="none" xmlns="http://www.w3.org/2000/svg">
<circle cx="20" cy="20" r="19.3" stroke="#1EFF4F" stroke-width="1.4"/>
<mask id="path-2-outside-1_497_340" maskUnits="userSpaceOnUse" x="13.1992" y="13.2002" width="14" height="15" fill="black">
<rect fill="white" x="13.1992" y="13.2002" width="14" height="15"/>
<path d="M18.4712 26.3922C17.6926 26.3922 17.0046 26.2802 16.4072 26.0562C15.8099 25.8215 15.3406 25.4962 14.9992 25.0802C14.6579 24.6535 14.4872 24.1522 14.4872 23.5762C14.4872 22.9255 14.6632 22.3549 15.0152 21.8642C15.3779 21.3735 15.8846 20.9309 16.5352 20.5362C17.1859 20.1309 17.9539 19.7575 18.8392 19.4162C19.5859 19.1282 20.1566 18.8722 20.5512 18.6482C20.9459 18.4242 21.2126 18.2109 21.3512 18.0082C21.5006 17.8055 21.5752 17.5869 21.5752 17.3522C21.5752 17.1282 21.4846 16.9415 21.3032 16.7922C21.1326 16.6322 20.8872 16.5522 20.5672 16.5522C20.1619 16.5522 19.8312 16.6642 19.5752 16.8882C19.3192 17.1015 19.1912 17.4002 19.1912 17.7842C19.1912 17.9975 19.2552 18.2215 19.3832 18.4562C19.5219 18.6909 19.7459 18.9895 20.0552 19.3522L24.9032 24.8242L23.2392 26.3922L17.9272 20.3442C17.5859 19.9602 17.3299 19.5815 17.1592 19.2082C16.9886 18.8349 16.9032 18.4402 16.9032 18.0242C16.9032 17.3629 17.0739 16.7975 17.4152 16.3282C17.7566 15.8482 18.2099 15.4855 18.7752 15.2402C19.3512 14.9842 19.9806 14.8562 20.6632 14.8562C21.2499 14.8562 21.7672 14.9469 22.2152 15.1282C22.6739 15.2989 23.0312 15.5549 23.2872 15.8962C23.5539 16.2375 23.6872 16.6535 23.6872 17.1442C23.6872 17.7309 23.5219 18.2429 23.1912 18.6802C22.8606 19.1175 22.3912 19.5122 21.7832 19.8642C21.1752 20.2055 20.4552 20.5415 19.6232 20.8722C19.0472 21.1069 18.5619 21.3362 18.1672 21.5602C17.7726 21.7842 17.4739 22.0242 17.2712 22.2802C17.0792 22.5255 16.9832 22.8135 16.9832 23.1442C16.9832 23.5175 17.1326 23.8269 17.4312 24.0722C17.7406 24.3175 18.1939 24.4402 18.7912 24.4402C19.4099 24.4402 20.0126 24.2909 20.5992 23.9922C21.1966 23.6829 21.7459 23.2295 22.2472 22.6322C22.7486 22.0242 23.1646 21.2882 23.4952 20.4242L25.3992 21.0482C24.9512 22.1575 24.3806 23.1122 23.6872 23.9122C22.9939 24.7122 22.2046 25.3255 21.3192 25.7522C20.4339 26.1789 19.4846 26.3922 18.4712 26.3922Z"/>
</mask>
<path d="M16.4072 26.0562L16.0416 26.9869C16.0464 26.9888 16.0512 26.9907 16.0561 26.9925L16.4072 26.0562ZM14.9992 25.0802L14.2183 25.7049L14.2261 25.7145L14.9992 25.0802ZM15.0152 21.8642L14.211 21.2698C14.2082 21.2736 14.2054 21.2774 14.2027 21.2813L15.0152 21.8642ZM16.5352 20.5362L17.0539 21.3913L17.064 21.385L16.5352 20.5362ZM18.8392 19.4162L19.199 20.3493L19.1991 20.3492L18.8392 19.4162ZM21.3512 18.0082L20.5462 17.415C20.5392 17.4244 20.5325 17.4339 20.5259 17.4435L21.3512 18.0082ZM21.3032 16.7922L20.6193 17.5217C20.6349 17.5364 20.651 17.5505 20.6675 17.5641L21.3032 16.7922ZM19.5752 16.8882L20.2154 17.6564C20.2216 17.6513 20.2277 17.6461 20.2337 17.6408L19.5752 16.8882ZM19.3832 18.4562L18.5053 18.935C18.5108 18.9451 18.5165 18.9551 18.5223 18.9649L19.3832 18.4562ZM20.0552 19.3522L19.2944 20.0011C19.2985 20.0059 19.3026 20.0106 19.3067 20.0153L20.0552 19.3522ZM24.9032 24.8242L25.589 25.552C25.9823 25.1814 26.01 24.5655 25.6517 24.1611L24.9032 24.8242ZM23.2392 26.3922L22.4879 27.0521C22.6669 27.2559 22.9211 27.3783 23.192 27.3911C23.463 27.4039 23.7276 27.306 23.925 27.12L23.2392 26.3922ZM17.9272 20.3442L18.6786 19.6843L18.6746 19.6798L17.9272 20.3442ZM17.1592 19.2082L16.2497 19.624L16.2497 19.624L17.1592 19.2082ZM17.4152 16.3282L18.224 16.9164L18.2302 16.9077L17.4152 16.3282ZM18.7752 15.2402L19.1733 16.1576L19.1814 16.154L18.7752 15.2402ZM22.2152 15.1282L21.84 16.0551C21.8488 16.0587 21.8576 16.0621 21.8665 16.0654L22.2152 15.1282ZM23.2872 15.8962L22.4872 16.4962C22.4912 16.5014 22.4952 16.5067 22.4992 16.5118L23.2872 15.8962ZM21.7832 19.8642L22.2728 20.7363L22.2843 20.7296L21.7832 19.8642ZM19.6232 20.8722L19.2539 19.9429L19.2459 19.9461L19.6232 20.8722ZM18.1672 21.5602L17.6736 20.6905L17.6736 20.6905L18.1672 21.5602ZM17.2712 22.2802L16.4872 21.6595L16.4837 21.6639L17.2712 22.2802ZM17.4312 24.0722L16.7965 24.8449C16.8009 24.8486 16.8053 24.8521 16.8098 24.8557L17.4312 24.0722ZM20.5992 23.9922L21.0529 24.8834L21.0591 24.8802L20.5992 23.9922ZM22.2472 22.6322L23.0132 23.2751L23.0188 23.2684L22.2472 22.6322ZM23.4952 20.4242L23.8067 19.4739C23.2999 19.3078 22.7519 19.5687 22.5613 20.0668L23.4952 20.4242ZM25.3992 21.0482L26.3265 21.4227C26.4301 21.1659 26.4227 20.8777 26.306 20.6267C26.1893 20.3756 25.9737 20.1842 25.7107 20.0979L25.3992 21.0482ZM23.6872 23.9122L24.4429 24.5671L24.4429 24.5671L23.6872 23.9122ZM21.3192 25.7522L21.7534 26.653L21.7534 26.653L21.3192 25.7522ZM18.4712 26.3922V25.3922C17.7868 25.3922 17.2217 25.2936 16.7583 25.1199L16.4072 26.0562L16.0561 26.9925C16.7874 27.2668 17.5983 27.3922 18.4712 27.3922V26.3922ZM16.4072 26.0562L16.7729 25.1254C16.3038 24.9412 15.9862 24.7066 15.7723 24.4459L14.9992 25.0802L14.2261 25.7145C14.6949 26.2858 15.316 26.7019 16.0416 26.9869L16.4072 26.0562ZM14.9992 25.0802L15.7801 24.4555C15.5887 24.2162 15.4872 23.9384 15.4872 23.5762H14.4872H13.4872C13.4872 24.366 13.7271 25.0908 14.2183 25.7049L14.9992 25.0802ZM14.4872 23.5762H15.4872C15.4872 23.1175 15.6073 22.7545 15.8278 22.4471L15.0152 21.8642L14.2027 21.2813C13.7192 21.9553 13.4872 22.7335 13.4872 23.5762H14.4872ZM15.0152 21.8642L15.8194 22.4586C16.0882 22.0949 16.4878 21.7345 17.0538 21.3912L16.5352 20.5362L16.0166 19.6812C15.2813 20.1272 14.6676 20.6521 14.211 21.2698L15.0152 21.8642ZM16.5352 20.5362L17.064 21.385C17.6502 21.0198 18.3592 20.673 19.199 20.3493L18.8392 19.4162L18.4795 18.4831C17.5485 18.8421 16.7215 19.242 16.0065 19.6874L16.5352 20.5362ZM18.8392 19.4162L19.1991 20.3492C19.9627 20.0546 20.5867 19.7779 21.0448 19.5179L20.5512 18.6482L20.0576 17.7785C19.7264 17.9665 19.209 18.2017 18.4793 18.4832L18.8392 19.4162ZM20.5512 18.6482L21.0448 19.5179C21.4779 19.2721 21.9067 18.9672 22.1765 18.5729L21.3512 18.0082L20.5259 17.4435C20.5294 17.4384 20.5064 17.4722 20.4225 17.5393C20.3414 17.6043 20.2229 17.6847 20.0576 17.7785L20.5512 18.6482ZM21.3512 18.0082L22.1563 18.6014C22.4225 18.2401 22.5752 17.8162 22.5752 17.3522H21.5752H20.5752C20.5752 17.3613 20.5741 17.3654 20.5729 17.3691C20.5714 17.3734 20.5656 17.3886 20.5462 17.415L21.3512 18.0082ZM21.5752 17.3522H22.5752C22.5752 16.813 22.338 16.3489 21.9389 16.0203L21.3032 16.7922L20.6675 17.5641C20.6619 17.5595 20.633 17.5332 20.6077 17.4811C20.5818 17.4277 20.5752 17.3793 20.5752 17.3522H21.5752ZM21.3032 16.7922L21.9872 16.0627C21.572 15.6734 21.0465 15.5522 20.5672 15.5522V16.5522V17.5522C20.6462 17.5522 20.6793 17.5623 20.6812 17.5629C20.6814 17.563 20.6739 17.5605 20.6615 17.5534C20.6488 17.5461 20.634 17.5356 20.6193 17.5217L21.3032 16.7922ZM20.5672 16.5522V15.5522C19.9685 15.5522 19.3887 15.7227 18.9167 16.1356L19.5752 16.8882L20.2337 17.6408C20.2738 17.6057 20.3553 17.5522 20.5672 17.5522V16.5522ZM19.5752 16.8882L18.935 16.12C18.4149 16.5534 18.1912 17.1539 18.1912 17.7842H19.1912H20.1912C20.1912 17.7034 20.2045 17.6705 20.2064 17.6661C20.2075 17.6635 20.2077 17.6635 20.2072 17.6642C20.2068 17.6648 20.2086 17.6621 20.2154 17.6564L19.5752 16.8882ZM19.1912 17.7842H18.1912C18.1912 18.202 18.3171 18.59 18.5053 18.935L19.3832 18.4562L20.2611 17.9773C20.1933 17.853 20.1912 17.793 20.1912 17.7842H19.1912ZM19.3832 18.4562L18.5223 18.9649C18.7041 19.2726 18.971 19.6219 19.2944 20.0011L20.0552 19.3522L20.8161 18.7032C20.5208 18.3571 20.3397 18.1092 20.2441 17.9475L19.3832 18.4562ZM20.0552 19.3522L19.3067 20.0153L24.1547 25.4873L24.9032 24.8242L25.6517 24.1611L20.8037 18.6891L20.0552 19.3522ZM24.9032 24.8242L24.2174 24.0964L22.5534 25.6644L23.2392 26.3922L23.925 27.12L25.589 25.552L24.9032 24.8242ZM23.2392 26.3922L23.9906 25.7323L18.6786 19.6843L17.9272 20.3442L17.1759 21.0041L22.4879 27.0521L23.2392 26.3922ZM17.9272 20.3442L18.6746 19.6798C18.3835 19.3523 18.1891 19.0559 18.0687 18.7924L17.1592 19.2082L16.2497 19.624C16.4706 20.1072 16.7882 20.568 17.1798 21.0086L17.9272 20.3442ZM17.1592 19.2082L18.0687 18.7924C17.9585 18.5514 17.9032 18.2987 17.9032 18.0242H16.9032H15.9032C15.9032 18.5817 16.0186 19.1183 16.2497 19.624L17.1592 19.2082ZM16.9032 18.0242H17.9032C17.9032 17.5435 18.0238 17.1915 18.224 16.9164L17.4152 16.3282L16.6065 15.74C16.1239 16.4035 15.9032 17.1822 15.9032 18.0242H16.9032ZM17.4152 16.3282L18.2302 16.9077C18.4609 16.5832 18.767 16.3339 19.1733 16.1575L18.7752 15.2402L18.3771 14.3228C17.6528 14.6372 17.0522 15.1132 16.6003 15.7487L17.4152 16.3282ZM18.7752 15.2402L19.1814 16.154C19.6192 15.9594 20.1087 15.8562 20.6632 15.8562V14.8562V13.8562C19.8524 13.8562 19.0833 14.009 18.3691 14.3264L18.7752 15.2402ZM20.6632 14.8562V15.8562C21.1481 15.8562 21.5338 15.9312 21.84 16.0551L22.2152 15.1282L22.5904 14.2012C22.0007 13.9625 21.3517 13.8562 20.6632 13.8562V14.8562ZM22.2152 15.1282L21.8665 16.0654C22.1726 16.1793 22.3624 16.3298 22.4872 16.4962L23.2872 15.8962L24.0872 15.2962C23.7 14.78 23.1752 14.4184 22.564 14.191L22.2152 15.1282ZM23.2872 15.8962L22.4992 16.5118C22.6105 16.6543 22.6872 16.8455 22.6872 17.1442H23.6872H24.6872C24.6872 16.4616 24.4973 15.8208 24.0752 15.2805L23.2872 15.8962ZM23.6872 17.1442H22.6872C22.6872 17.5294 22.5835 17.8259 22.3936 18.0771L23.1912 18.6802L23.9889 19.2833C24.4603 18.6598 24.6872 17.9323 24.6872 17.1442H23.6872ZM23.1912 18.6802L22.3936 18.0771C22.1625 18.3827 21.8059 18.6955 21.2822 18.9988L21.7832 19.8642L22.2843 20.7296C22.9765 20.3288 23.5586 19.8523 23.9889 19.2833L23.1912 18.6802ZM21.7832 19.8642L21.2937 18.9922C20.7335 19.3067 20.0555 19.6243 19.2539 19.9429L19.6232 20.8722L19.9926 21.8015C20.8549 21.4588 21.6169 21.1044 22.2728 20.7362L21.7832 19.8642ZM19.6232 20.8722L19.2459 19.9461C18.6435 20.1915 18.1166 20.4391 17.6736 20.6905L18.1672 21.5602L18.6608 22.4299C19.0071 22.2333 19.451 22.0222 20.0005 21.7983L19.6232 20.8722ZM18.1672 21.5602L17.6736 20.6905C17.2076 20.955 16.7943 21.2715 16.4872 21.6595L17.2712 22.2802L18.0553 22.9009C18.1534 22.7769 18.3375 22.6134 18.6608 22.4299L18.1672 21.5602ZM17.2712 22.2802L16.4837 21.6639C16.1452 22.0964 15.9832 22.6048 15.9832 23.1442H16.9832H17.9832C17.9832 23.0222 18.0132 22.9547 18.0587 22.8965L17.2712 22.2802ZM16.9832 23.1442H15.9832C15.9832 23.8288 16.276 24.4174 16.7965 24.8449L17.4312 24.0722L18.066 23.2995C18.0146 23.2573 17.9999 23.23 17.9958 23.2214C17.9921 23.2138 17.9832 23.1936 17.9832 23.1442H16.9832ZM17.4312 24.0722L16.8098 24.8557C17.3664 25.2971 18.0786 25.4402 18.7912 25.4402V24.4402V23.4402C18.3091 23.4402 18.1147 23.3379 18.0526 23.2887L17.4312 24.0722ZM18.7912 24.4402V25.4402C19.5776 25.4402 20.3349 25.2489 21.0529 24.8834L20.5992 23.9922L20.1455 23.101C19.6902 23.3329 19.2421 23.4402 18.7912 23.4402V24.4402ZM20.5992 23.9922L21.0591 24.8802C21.7908 24.5013 22.4404 23.9576 23.0132 23.2751L22.2472 22.6322L21.4812 21.9893C21.0514 22.5015 20.6023 22.8645 20.1394 23.1042L20.5992 23.9922ZM22.2472 22.6322L23.0188 23.2684C23.5997 22.5638 24.0664 21.7296 24.4292 20.7816L23.4952 20.4242L22.5613 20.0668C22.2627 20.8468 21.8974 21.4846 21.4757 21.996L22.2472 22.6322ZM23.4952 20.4242L23.1838 21.3745L25.0878 21.9985L25.3992 21.0482L25.7107 20.0979L23.8067 19.4739L23.4952 20.4242ZM25.3992 21.0482L24.472 20.6737C24.06 21.6939 23.5439 22.5507 22.9315 23.2573L23.6872 23.9122L24.4429 24.5671C25.2172 23.6737 25.8425 22.6212 26.3265 21.4227L25.3992 21.0482ZM23.6872 23.9122L22.9315 23.2573C22.3205 23.9623 21.6383 24.4883 20.8851 24.8514L21.3192 25.7522L21.7534 26.653C22.7708 26.1627 23.6673 25.4621 24.4429 24.5671L23.6872 23.9122ZM21.3192 25.7522L20.8851 24.8514C20.1394 25.2107 19.339 25.3922 18.4712 25.3922V26.3922V27.3922C19.6301 27.3922 20.7283 27.147 21.7534 26.653L21.3192 25.7522Z" fill="#1EFF4F" mask="url(#path-2-outside-1_497_340)"/>
</svg>
