<svg width="210" height="211" viewBox="0 0 210 211" fill="none" xmlns="http://www.w3.org/2000/svg">
<circle cx="110" cy="111" r="100" fill="#1EFF4F"/>
<circle cx="100" cy="100" r="99.5763" fill="#222222" stroke="#222222" stroke-width="0.847458"/>
<mask id="path-3-outside-1_377_76" maskUnits="userSpaceOnUse" x="21.9074" y="48.1038" width="74.7892" height="78.7484" fill="black">
<rect fill="white" x="21.9074" y="48.1038" width="74.7892" height="78.7484"/>
<path d="M50.6819 125.087C44.4676 125.024 39.1103 124.016 34.6102 122.063C30.1806 120.112 26.6082 117.215 23.8929 113.374L40.0418 98.3886C41.6423 100.736 43.3545 102.519 45.1784 103.738C47.0736 104.887 49.1158 105.473 51.3049 105.495C53.7059 105.519 55.6551 104.833 57.1524 103.436C58.7204 102.039 59.7648 100.037 60.2857 97.4292L66.4089 68.2526L41.1984 67.9963L45.2034 49.1801L95.0949 49.6874L85.2995 96.2004C83.8146 103.318 81.5673 109.016 78.5575 113.294C75.5485 117.501 71.7039 120.534 67.0237 122.393C62.4142 124.253 56.9669 125.151 50.6819 125.087Z"/>
</mask>
<path d="M50.6819 125.087C44.4676 125.024 39.1103 124.016 34.6102 122.063C30.1806 120.112 26.6082 117.215 23.8929 113.374L40.0418 98.3886C41.6423 100.736 43.3545 102.519 45.1784 103.738C47.0736 104.887 49.1158 105.473 51.3049 105.495C53.7059 105.519 55.6551 104.833 57.1524 103.436C58.7204 102.039 59.7648 100.037 60.2857 97.4292L66.4089 68.2526L41.1984 67.9963L45.2034 49.1801L95.0949 49.6874L85.2995 96.2004C83.8146 103.318 81.5673 109.016 78.5575 113.294C75.5485 117.501 71.7039 120.534 67.0237 122.393C62.4142 124.253 56.9669 125.151 50.6819 125.087Z" fill="white"/>
<path d="M34.6102 122.063L34.2684 122.839L34.2728 122.841L34.6102 122.063ZM23.8929 113.374L23.3164 112.752L22.7726 113.257L23.2008 113.863L23.8929 113.374ZM40.0418 98.3886L40.742 97.9112L40.1872 97.0977L39.4654 97.7674L40.0418 98.3886ZM45.1784 103.738L44.7074 104.442L44.723 104.453L44.739 104.462L45.1784 103.738ZM57.1524 103.436L56.5888 102.803L56.5814 102.809L56.5742 102.816L57.1524 103.436ZM60.2857 97.4292L59.4563 97.2551L59.4546 97.2632L60.2857 97.4292ZM66.4089 68.2526L67.2383 68.4267L67.4505 67.4157L66.4175 67.4052L66.4089 68.2526ZM41.1984 67.9963L40.3695 67.8198L40.1538 68.8332L41.1897 68.8437L41.1984 67.9963ZM45.2034 49.1801L45.2121 48.3327L44.5189 48.3256L44.3745 49.0037L45.2034 49.1801ZM95.0949 49.6874L95.9242 49.862L96.1372 48.8505L95.1036 48.84L95.0949 49.6874ZM85.2995 96.2004L84.4702 96.0257L84.4699 96.0273L85.2995 96.2004ZM78.5575 113.294L79.2468 113.787L79.2506 113.781L78.5575 113.294ZM67.0237 122.393L66.7109 121.605L66.7066 121.607L67.0237 122.393ZM50.6819 125.087L50.6906 124.24C44.5603 124.177 39.3201 123.183 34.9475 121.286L34.6102 122.063L34.2728 122.841C38.9005 124.849 44.3749 125.871 50.6733 125.935L50.6819 125.087ZM34.6102 122.063L34.9519 121.288C30.6586 119.396 27.2089 116.597 24.5849 112.884L23.8929 113.374L23.2008 113.863C26.0075 117.833 29.7026 120.827 34.2684 122.839L34.6102 122.063ZM23.8929 113.374L24.4693 113.995L40.6183 99.0098L40.0418 98.3886L39.4654 97.7674L23.3164 112.752L23.8929 113.374ZM40.0418 98.3886L39.3417 98.8661C40.9862 101.277 42.771 103.148 44.7074 104.442L45.1784 103.738L45.6493 103.033C43.938 101.889 42.2985 100.194 40.742 97.9112L40.0418 98.3886ZM45.1784 103.738L44.739 104.462C46.7624 105.689 48.9531 106.319 51.2963 106.342L51.3049 105.495L51.3135 104.648C49.2784 104.627 47.3847 104.085 45.6178 103.013L45.1784 103.738ZM51.3049 105.495L51.2963 106.342C53.8747 106.369 56.0471 105.626 57.7306 104.055L57.1524 103.436L56.5742 102.816C55.2631 104.04 53.5371 104.67 51.3135 104.648L51.3049 105.495ZM57.1524 103.436L57.7161 104.069C59.4544 102.52 60.5695 100.335 61.1167 97.5952L60.2857 97.4292L59.4546 97.2632C58.9601 99.7391 57.9863 101.558 56.5888 102.803L57.1524 103.436ZM60.2857 97.4292L61.1151 97.6032L67.2383 68.4267L66.4089 68.2526L65.5795 68.0786L59.4563 97.2551L60.2857 97.4292ZM66.4089 68.2526L66.4175 67.4052L41.207 67.1489L41.1984 67.9963L41.1897 68.8437L66.4003 69.1L66.4089 68.2526ZM41.1984 67.9963L42.0272 68.1727L46.0323 49.3565L45.2034 49.1801L44.3745 49.0037L40.3695 67.8198L41.1984 67.9963ZM45.2034 49.1801L45.1948 50.0275L95.0863 50.5348L95.0949 49.6874L95.1036 48.84L45.2121 48.3327L45.2034 49.1801ZM95.0949 49.6874L94.2657 49.5127L84.4702 96.0257L85.2995 96.2004L86.1287 96.375L95.9242 49.862L95.0949 49.6874ZM85.2995 96.2004L84.4699 96.0273C83 103.073 80.7872 108.652 77.8645 112.806L78.5575 113.294L79.2506 113.781C82.3474 109.38 84.6292 103.563 86.1291 96.3734L85.2995 96.2004ZM78.5575 113.294L77.8682 112.801C74.9511 116.879 71.2356 119.808 66.7109 121.605L67.0237 122.393L67.3366 123.181C72.1722 121.26 76.1459 118.122 79.2468 113.787L78.5575 113.294ZM67.0237 122.393L66.7066 121.607C62.224 123.416 56.8924 124.303 50.6906 124.24L50.6819 125.087L50.6733 125.935C57.0415 125.999 62.6044 125.09 67.3409 123.179L67.0237 122.393Z" fill="#222222" mask="url(#path-3-outside-1_377_76)"/>
<mask id="path-5-outside-2_377_76" maskUnits="userSpaceOnUse" x="93.2166" y="85.5735" width="86.092" height="80.2575" fill="black">
<rect fill="white" x="93.2166" y="85.5735" width="86.092" height="80.2575"/>
<path d="M126.846 163.155C119.151 162.945 112.766 161.323 107.691 158.288C102.619 155.183 99.0592 150.989 97.013 145.705C95.0393 140.353 94.8535 134.201 96.4558 127.251L105.72 86.7039L130.71 87.3844L121.564 127.51C120.999 130.109 120.761 132.363 120.85 134.273C120.939 136.183 121.355 137.784 122.097 139.076C122.909 140.37 124.013 141.353 125.407 142.027C126.804 142.63 128.491 142.959 130.467 143.013C132.868 143.078 134.928 142.64 136.649 141.698C138.441 140.757 139.933 139.173 141.124 136.945C142.385 134.718 143.419 131.779 144.225 128.128L153.371 88.0014L177.939 88.6704L168.434 130.27C165.944 141.294 161.231 149.608 154.297 155.213C147.362 160.817 138.212 163.464 126.846 163.155Z"/>
</mask>
<path d="M126.846 163.155C119.151 162.945 112.766 161.323 107.691 158.288C102.619 155.183 99.0592 150.989 97.013 145.705C95.0393 140.353 94.8535 134.201 96.4558 127.251L105.72 86.7039L130.71 87.3844L121.564 127.51C120.999 130.109 120.761 132.363 120.85 134.273C120.939 136.183 121.355 137.784 122.097 139.076C122.909 140.37 124.013 141.353 125.407 142.027C126.804 142.63 128.491 142.959 130.467 143.013C132.868 143.078 134.928 142.64 136.649 141.698C138.441 140.757 139.933 139.173 141.124 136.945C142.385 134.718 143.419 131.779 144.225 128.128L153.371 88.0014L177.939 88.6704L168.434 130.27C165.944 141.294 161.231 149.608 154.297 155.213C147.362 160.817 138.212 163.464 126.846 163.155Z" fill="white"/>
<path d="M107.691 158.288L107.249 159.011L107.256 159.016L107.691 158.288ZM97.013 145.705L96.2177 145.998L96.2227 146.011L97.013 145.705ZM96.4558 127.251L97.2816 127.441L97.2819 127.439L96.4558 127.251ZM105.72 86.7039L105.743 85.8567L105.048 85.8378L104.893 86.5151L105.72 86.7039ZM130.71 87.3844L131.537 87.5727L131.766 86.5653L130.733 86.5372L130.71 87.3844ZM121.564 127.51L120.738 127.322L120.736 127.33L121.564 127.51ZM120.85 134.273L121.696 134.234L121.696 134.234L120.85 134.273ZM122.097 139.076L121.362 139.498L121.37 139.512L121.379 139.527L122.097 139.076ZM125.407 142.027L125.039 142.79L125.055 142.798L125.071 142.805L125.407 142.027ZM136.649 141.698L136.256 140.947L136.249 140.951L136.243 140.954L136.649 141.698ZM141.124 136.945L140.386 136.527L140.381 136.536L140.376 136.545L141.124 136.945ZM144.225 128.128L143.399 127.939L143.397 127.945L144.225 128.128ZM153.371 88.0014L153.395 87.1543L152.7 87.1354L152.545 87.8131L153.371 88.0014ZM177.939 88.6704L178.765 88.8591L178.995 87.8514L177.962 87.8232L177.939 88.6704ZM168.434 130.27L167.608 130.082L167.608 130.084L168.434 130.27ZM154.297 155.213L154.829 155.872L154.829 155.872L154.297 155.213ZM126.846 163.155L126.869 162.308C119.276 162.101 113.044 160.502 108.126 157.561L107.691 158.288L107.256 159.016C112.488 162.144 119.025 163.79 126.823 164.002L126.846 163.155ZM107.691 158.288L108.134 157.566C103.211 154.552 99.7788 150.5 97.8032 145.399L97.013 145.705L96.2227 146.011C98.3395 151.477 102.026 155.814 107.249 159.011L107.691 158.288ZM97.013 145.705L97.8081 145.412C95.9042 140.249 95.7071 134.271 97.2816 127.441L96.4558 127.251L95.6299 127.06C94 134.131 94.1743 140.456 96.2178 145.998L97.013 145.705ZM96.4558 127.251L97.2819 127.439L106.546 86.8926L105.72 86.7039L104.893 86.5151L95.6296 127.062L96.4558 127.251ZM105.72 86.7039L105.697 87.551L130.687 88.2315L130.71 87.3844L130.733 86.5372L105.743 85.8567L105.72 86.7039ZM130.71 87.3844L129.884 87.196L120.738 127.322L121.564 127.51L122.39 127.699L131.537 87.5727L130.71 87.3844ZM121.564 127.51L120.736 127.33C120.16 129.975 119.91 132.307 120.003 134.313L120.85 134.273L121.696 134.234C121.612 132.42 121.837 130.243 122.392 127.691L121.564 127.51ZM120.85 134.273L120.003 134.313C120.097 136.32 120.537 138.061 121.362 139.498L122.097 139.076L122.832 138.654C122.173 137.507 121.781 136.046 121.696 134.234L120.85 134.273ZM122.097 139.076L121.379 139.527C122.278 140.957 123.503 142.048 125.039 142.79L125.407 142.027L125.776 141.264C124.523 140.659 123.541 139.782 122.814 138.625L122.097 139.076ZM125.407 142.027L125.071 142.805C126.592 143.462 128.391 143.804 130.444 143.86L130.467 143.013L130.49 142.166C128.591 142.114 127.016 141.799 125.744 141.249L125.407 142.027ZM130.467 143.013L130.444 143.86C132.961 143.928 135.177 143.47 137.056 142.441L136.649 141.698L136.243 140.954C134.679 141.81 132.774 142.228 130.49 142.166L130.467 143.013ZM136.649 141.698L137.043 142.448C139.019 141.411 140.62 139.685 141.871 137.344L141.124 136.945L140.376 136.545C139.245 138.661 137.863 140.103 136.256 140.947L136.649 141.698ZM141.124 136.945L141.861 137.362C143.179 135.037 144.236 132.01 145.053 128.31L144.225 128.128L143.397 127.945C142.602 131.549 141.592 134.399 140.386 136.527L141.124 136.945ZM144.225 128.128L145.051 128.316L154.198 88.1898L153.371 88.0014L152.545 87.8131L143.399 127.939L144.225 128.128ZM153.371 88.0014L153.348 88.8486L177.916 89.5175L177.939 88.6704L177.962 87.8232L153.395 87.1543L153.371 88.0014ZM177.939 88.6704L177.112 88.4816L167.608 130.082L168.434 130.27L169.26 130.459L178.765 88.8591L177.939 88.6704ZM168.434 130.27L167.608 130.084C165.148 140.972 160.514 149.098 153.764 154.553L154.297 155.213L154.829 155.872C161.948 150.119 166.74 141.616 169.261 130.457L168.434 130.27ZM154.297 155.213L153.764 154.553C147.025 159.999 138.09 162.613 126.869 162.308L126.846 163.155L126.823 164.002C138.333 164.315 147.698 161.634 154.829 155.872L154.297 155.213Z" fill="#222222" mask="url(#path-5-outside-2_377_76)"/>
</svg>
