<svg width="60" height="96" viewBox="0 0 60 96" fill="none" xmlns="http://www.w3.org/2000/svg">
<path d="M8.72 77V21H32.8C38.88 21 43.6533 22.2267 47.12 24.68C50.5867 27.1333 52.32 30.7067 52.32 35.4C52.32 39.9867 50.6667 43.5067 47.36 45.96C44.0533 48.36 39.7067 49.56 34.32 49.56L35.76 47.16C42 47.16 46.7733 48.4133 50.08 50.92C53.44 53.3733 55.12 56.9733 55.12 61.72C55.12 66.52 53.36 70.28 49.84 73C46.3733 75.6667 41.2 77 34.32 77H8.72ZM16.64 70.68H34.16C38.4267 70.68 41.6267 69.9067 43.76 68.36C45.9467 66.76 47.04 64.3333 47.04 61.08C47.04 57.8267 45.9467 55.4533 43.76 53.96C41.6267 52.4667 38.4267 51.72 34.16 51.72H16.64V70.68ZM16.64 45.64H32.24C36.1333 45.64 39.0933 44.8667 41.12 43.32C43.2 41.7733 44.24 39.5067 44.24 36.52C44.24 33.48 43.2 31.1867 41.12 29.64C39.0933 28.0933 36.1333 27.32 32.24 27.32H16.64V45.64Z" fill="#222222"/>
<path d="M7.40039 21H9.40039V45C9.40039 45.5523 8.95268 46 8.40039 46V46C7.84811 46 7.40039 45.5523 7.40039 45V21Z" fill="#1EFF4F"/>
<path d="M7.40039 21L7.40039 19L26.4004 19C26.9527 19 27.4004 19.4477 27.4004 20V20C27.4004 20.5523 26.9527 21 26.4004 21L7.40039 21Z" fill="#1EFF4F"/>
</svg>
