<svg width="59" height="96" viewBox="0 0 59 96" fill="none" xmlns="http://www.w3.org/2000/svg">
<path d="M8.72 77V21H50.96V27.8H16.64V43.8H34.08C40.7467 43.8 45.8133 45.1867 49.28 47.96C52.7467 50.7333 54.48 54.76 54.48 60.04C54.48 65.48 52.5867 69.6667 48.8 72.6C45.0667 75.5333 39.7067 77 32.72 77H8.72ZM16.64 70.68H32.4C37.04 70.68 40.5333 69.8 42.88 68.04C45.28 66.28 46.48 63.6667 46.48 60.2C46.48 53.48 41.7867 50.12 32.4 50.12H16.64V70.68Z" fill="#222222"/>
<path d="M16.1992 28H18.1992V37C18.1992 37.5523 17.7515 38 17.1992 38V38C16.6469 38 16.1992 37.5523 16.1992 37V28Z" fill="#1EFF4F"/>
<path d="M16.1992 29L16.1992 27L30.1992 27C30.7515 27 31.1992 27.4477 31.1992 28V28C31.1992 28.5523 30.7515 29 30.1992 29L16.1992 29Z" fill="#1EFF4F"/>
</svg>
