<svg width="65" height="96" viewBox="0 0 65 96" fill="none" xmlns="http://www.w3.org/2000/svg">
<path d="M45.92 73.24V27.96H21.36L20.96 39.72C20.8 43.6667 20.5333 47.4533 20.16 51.08C19.84 54.7067 19.36 57.9867 18.72 60.92C18.08 63.8 17.1733 66.1733 16 68.04C14.88 69.9067 13.44 71.0533 11.68 71.48L3.04 70.04C5.12 70.2 6.82667 69.5067 8.16 67.96C9.54667 66.36 10.6133 64.1467 11.36 61.32C12.16 58.44 12.7467 55.1067 13.12 51.32C13.4933 47.48 13.76 43.3733 13.92 39L14.48 21H53.84V73.24H45.92ZM1.04 89.24L1.12 70.04H62.08V89.24H54.64V77H8.56L8.48 89.24H1.04Z" fill="#222222"/>
<path d="M44.8008 28L44.8008 30L30.8008 30C30.2485 30 29.8008 29.5523 29.8008 29V29C29.8008 28.4477 30.2485 28 30.8008 28L44.8008 28Z" fill="#1EFF4F"/>
<path d="M43.8008 28L45.8008 28L45.8008 42C45.8008 42.5523 45.3531 43 44.8008 43V43C44.2485 43 43.8008 42.5523 43.8008 42L43.8008 28Z" fill="#1EFF4F"/>
</svg>
