<svg width="673" height="860" viewBox="0 0 673 860" fill="none" xmlns="http://www.w3.org/2000/svg">
<path d="M49.3668 683V189.332H164.321L368.84 525.026H308.19L507.067 189.332H622.021L623.432 683H495.078L493.668 384.684H515.53L366.725 634.338H304.663L151.626 384.684H178.426V683H49.3668Z" fill="#222222"/>
<path d="M30 659V169H144.1L347.1 502.2H286.9L484.3 169H598.4L599.8 659H472.4L471 362.9H492.7L345 610.7H283.4L131.5 362.9H158.1V659H30Z" fill="#00FF5E"/>
<path d="M145.224 167L316.555 448.22L483.16 167H600.395L601.806 661H470.409L469.204 406.224L346.137 612.7H282.28L160.1 413.382V661H28V167H145.224ZM30 659H158.1V406.293L283.4 610.7H345L471.17 399.021L472.4 659H599.8L598.4 169H484.3L316.578 452.104L144.1 169H30V659Z" fill="#222222"/>
</svg>
