<svg width="360" height="459" viewBox="0 0 360 459" fill="none" xmlns="http://www.w3.org/2000/svg">
<path d="M26.3481 364V100.519H87.7014L196.858 279.686H164.487L270.632 100.519H331.986L332.739 364H264.234L263.481 204.782H275.149L195.729 338.028H162.605L80.9262 204.782H95.2295V364H26.3481Z" fill="#222222"/>
<path d="M12.0117 351.722V90.199H72.9093L181.255 268.035H149.125L254.481 90.199H315.379L316.126 351.722H248.13L247.383 193.687H258.964L180.134 325.944H147.257L66.1844 193.687H80.3814V351.722H12.0117Z" fill="#00FF5E"/>
<path d="M73.51 89.1313L164.953 239.224L253.874 89.1313H316.444L317.197 352.789H247.068L246.425 216.81L180.742 327.011H146.66L81.4496 220.63V352.789H10.9453V89.1313H73.51ZM12.0128 351.722H80.3822V216.847L147.258 325.943H180.135L247.474 212.966L248.131 351.722H316.127L315.38 90.1988H254.482L164.965 241.297L72.9101 90.1988H12.0128V351.722Z" fill="#222222"/>
</svg>
