<svg width="154" height="195" viewBox="0 0 154 195" fill="none" xmlns="http://www.w3.org/2000/svg">
<path d="M11.5622 155V42.7767H37.6942L84.1867 119.089H70.3992L115.609 42.7767H141.741L142.062 155H112.884L112.563 87.1851H117.533L83.7057 143.938H69.5976L34.8084 87.1851H40.9005V155H11.5622Z" fill="#222222"/>
<path d="M0.455078 142.807V31.418H26.3929L72.54 107.163H58.855L103.729 31.418H129.667L129.985 142.807H101.024L100.706 75.4964H105.639L72.0627 131.828H58.0594L23.5286 75.4964H29.5755V142.807H0.455078Z" fill="#00FF5D"/>
<path d="M26.6479 30.9634L65.5959 94.8918L103.47 30.9634H130.12L130.441 143.262H100.571L100.297 85.345L72.3206 132.282H57.8044L30.0296 86.9723V143.262H0V30.9634H26.6479ZM0.454651 142.808H29.575V85.3608L58.059 131.828H72.0622L100.744 83.7076L101.024 142.808H129.985L129.667 31.418H103.729L65.6012 95.7747L26.3924 31.418H0.454651V142.808Z" fill="#222222"/>
</svg>
