<svg width="65" height="82" viewBox="0 0 65 82" fill="none" xmlns="http://www.w3.org/2000/svg">
<path d="M4.71913 65V17.8087H15.708L35.2587 49.8988H29.4609L48.4722 17.8087H59.4611L59.5959 65H47.3262L47.1913 36.483H49.2812L35.0564 60.3483H29.1238L14.4945 36.483H17.0563V65H4.71913Z" fill="#222222"/>
<path d="M1.19141 60.0524V13.2117H12.0986L31.5041 45.0634H25.7493L44.6195 13.2117H55.5267L55.6605 60.0524H43.4819L43.3481 31.7472H45.4224L31.3033 55.4352H25.4148L10.8941 31.7472H13.4369V60.0524H1.19141Z" fill="#00FF5D"/>
<path d="M12.2058 13.0205L28.5839 39.9032L44.5103 13.0205H55.7171L55.852 60.2436H43.2914L43.1762 35.8887L31.4117 55.6265H25.3075L13.6278 36.573V60.2436H1V13.0205H12.2058ZM1.19119 60.0524H13.4367V35.8953L25.4146 55.4353H31.3031L43.3641 35.2001L43.4817 60.0524H55.6602L55.5265 13.2117H44.6192L28.5861 40.2745L12.0983 13.2117H1.19119V60.0524Z" fill="#222222"/>
</svg>
