<svg width="26" height="31" viewBox="0 0 26 31" fill="none" xmlns="http://www.w3.org/2000/svg">
<path d="M2.40516 25V7.15938H6.55947L13.9506 19.291H11.7587L18.946 7.15938H23.1003L23.1513 25H18.5127L18.4617 14.2192H19.2518L13.8741 23.2414H11.6313L6.10071 14.2192H7.0692V25H2.40516Z" fill="#222222"/>
<path d="M0.0722656 22.7027V4.99463H4.19572L11.5319 17.0361H9.35636L16.4902 4.99463H20.6136L20.6642 22.7027H16.0601L16.0095 12.002H16.7938L11.456 20.9572H9.22987L3.74037 12.002H4.70166V22.7027H0.0722656Z" fill="#00FF5D"/>
<path d="M4.23634 4.92236L10.4281 15.0853L16.449 4.92236H20.6857L20.7367 22.775H15.9882L15.9446 13.5677L11.4971 21.0295H9.18942L4.77394 13.8263V22.775H0V4.92236H4.23634ZM0.0722779 22.7027H4.70166V13.5702L9.2299 20.9572H11.456L16.0157 13.3073L16.0602 22.7027H20.6642L20.6137 4.99464H16.4902L10.4289 15.2257L4.19572 4.99464H0.0722779V22.7027Z" fill="#222222"/>
</svg>
