<svg width="121" height="112" viewBox="0 0 121 112" fill="none" xmlns="http://www.w3.org/2000/svg">
<path d="M60.2522 -0.00018664C48.6867 -0.00018664 38.3648 2.36266 29.2865 7.08835C20.2082 11.9384 13.0574 18.5917 7.83431 27.0482C2.61118 35.5047 -0.000383197 45.0804 -0.000383197 55.7754C-0.000383197 66.4704 2.61118 75.9839 7.83431 84.3161C13.0574 92.6482 20.2082 99.2393 29.2865 104.089C38.3648 108.939 48.6867 111.364 60.2522 111.364C71.8177 111.364 82.1396 108.939 91.2179 104.089C100.296 99.2393 107.447 92.6482 112.67 84.3161C117.893 75.9839 120.505 66.4704 120.505 55.7754C120.505 45.0804 117.893 35.5047 112.67 27.0482C107.447 18.5917 100.296 11.9384 91.2179 7.08835C82.1396 2.36266 71.8177 -0.00018664 60.2522 -0.00018664ZM60.2522 24.0635C66.2215 24.0635 71.4446 25.3693 75.9216 27.9809C80.5229 30.7168 84.1293 34.5098 86.7409 39.3598C89.3525 44.2099 90.6583 49.6196 90.6583 55.5888C90.6583 61.8069 89.3525 67.2787 86.7409 72.0044C84.1293 76.7301 80.5229 80.4609 75.9216 83.1968C71.4446 85.9328 66.2215 87.3007 60.2522 87.3007C54.4072 87.3007 49.1841 85.9328 44.5828 83.1968C39.9814 80.4609 36.3128 76.7301 33.5769 72.0044C30.9653 67.2787 29.6595 61.869 29.6595 55.7754C29.6595 49.6817 30.9653 44.2099 33.5769 39.3598C36.3128 34.5098 39.9814 30.7168 44.5828 27.9809C49.1841 25.3693 54.4072 24.0635 60.2522 24.0635Z" fill="#1EFF4F"/>
</svg>
