<svg width="592" height="853" viewBox="0 0 592 853" fill="none" xmlns="http://www.w3.org/2000/svg">
<path d="M296.1 686.8C256.9 686.8 220.733 680.5 187.6 667.9C154.467 655.3 125.533 637.567 100.8 614.7C76.5333 591.367 57.6333 564.3 44.1 533.5C30.5667 502.7 23.8 468.867 23.8 432C23.8 395.133 30.5667 361.3 44.1 330.5C57.6333 299.7 76.5333 272.867 100.8 250C125.533 226.667 154.467 208.7 187.6 196.1C220.733 183.5 256.9 177.2 296.1 177.2C335.767 177.2 371.933 183.5 404.6 196.1C437.733 208.7 466.433 226.667 490.7 250C514.967 272.867 533.867 299.7 547.4 330.5C561.4 361.3 568.4 395.133 568.4 432C568.4 468.867 561.4 502.933 547.4 534.2C533.867 565 514.967 591.833 490.7 614.7C466.433 637.567 437.733 655.3 404.6 667.9C371.933 680.5 335.767 686.8 296.1 686.8ZM296.1 572C314.767 572 332.033 568.733 347.9 562.2C364.233 555.667 378.233 546.333 389.9 534.2C402.033 521.6 411.367 506.667 417.9 489.4C424.9 472.133 428.4 453 428.4 432C428.4 410.533 424.9 391.4 417.9 374.6C411.367 357.333 402.033 342.633 389.9 330.5C378.233 317.9 364.233 308.333 347.9 301.8C332.033 295.267 314.767 292 296.1 292C277.433 292 259.933 295.267 243.6 301.8C227.733 308.333 213.733 317.9 201.6 330.5C189.933 342.633 180.6 357.333 173.6 374.6C167.067 391.4 163.8 410.533 163.8 432C163.8 453 167.067 472.133 173.6 489.4C180.6 506.667 189.933 521.6 201.6 534.2C213.733 546.333 227.733 555.667 243.6 562.2C259.933 568.733 277.433 572 296.1 572Z" fill="#222222"/>
<path d="M276.101 665.8C236.901 665.8 200.734 659.5 167.601 646.9C134.467 634.3 105.534 616.567 80.8008 593.7C56.5341 570.367 37.6341 543.3 24.1008 512.5C10.5674 481.7 3.80078 447.867 3.80078 411C3.80078 374.133 10.5674 340.3 24.1008 309.5C37.6341 278.7 56.5341 251.867 80.8008 229C105.534 205.667 134.467 187.7 167.601 175.1C200.734 162.5 236.901 156.2 276.101 156.2C315.767 156.2 351.934 162.5 384.601 175.1C417.734 187.7 446.434 205.667 470.701 229C494.967 251.867 513.867 278.7 527.401 309.5C541.401 340.3 548.401 374.133 548.401 411C548.401 447.867 541.401 481.933 527.401 513.2C513.867 544 494.967 570.833 470.701 593.7C446.434 616.567 417.734 634.3 384.601 646.9C351.934 659.5 315.767 665.8 276.101 665.8ZM276.101 551C294.767 551 312.034 547.733 327.901 541.2C344.234 534.667 358.234 525.333 369.901 513.2C382.034 500.6 391.367 485.667 397.901 468.4C404.901 451.133 408.401 432 408.401 411C408.401 389.533 404.901 370.4 397.901 353.6C391.367 336.333 382.034 321.633 369.901 309.5C358.234 296.9 344.234 287.333 327.901 280.8C312.034 274.267 294.767 271 276.101 271C257.434 271 239.934 274.267 223.601 280.8C207.734 287.333 193.734 296.9 181.601 309.5C169.934 321.633 160.601 336.333 153.601 353.6C147.067 370.4 143.801 389.533 143.801 411C143.801 432 147.067 451.133 153.601 468.4C160.601 485.667 169.934 500.6 181.601 513.2C193.734 525.333 207.734 534.667 223.601 541.2C239.934 547.733 257.434 551 276.101 551Z" fill="#00FF5E"/>
<path d="M548.401 411C548.401 374.133 541.401 340.3 527.401 309.5C513.868 278.7 494.968 251.867 470.701 229C446.435 205.667 417.734 187.7 384.601 175.1C352.445 162.697 316.897 156.398 277.958 156.204L276.101 156.2C236.901 156.2 200.734 162.5 167.601 175.1C134.467 187.7 105.534 205.667 80.8008 229L79.667 230.075C55.9448 252.706 37.4224 279.181 24.1006 309.5L23.4717 310.946C10.358 341.358 3.80078 374.709 3.80078 411L3.80566 412.726C4.01378 448.923 10.7787 482.181 24.1006 512.5C37.6339 543.3 56.5341 570.367 80.8008 593.7C105.534 616.567 134.467 634.3 167.601 646.9C200.734 659.5 236.901 665.8 276.101 665.8C315.767 665.8 351.934 659.5 384.601 646.9C417.216 634.497 445.537 617.12 469.561 594.769L470.701 593.7C494.968 570.834 513.868 544 527.401 513.2C541.183 482.422 548.18 448.93 548.396 412.726L548.401 411ZM406.401 411C406.401 389.751 402.937 370.886 396.055 354.369L396.042 354.339L396.03 354.308C389.59 337.286 380.404 322.832 368.486 310.914L368.46 310.887L368.434 310.858C356.974 298.482 343.223 289.083 327.158 282.657L327.148 282.653L327.14 282.649C311.535 276.224 294.529 273 276.101 273C257.673 273 240.427 276.224 224.344 282.657C208.746 289.083 194.982 298.488 183.042 310.888L183.041 310.887C171.575 322.812 162.378 337.281 155.465 354.325L154.872 355.882C148.838 372.037 145.801 390.4 145.801 411C145.801 431.782 149.032 450.664 155.463 467.67C162.373 484.709 171.57 499.416 183.042 511.812C194.978 523.741 208.741 532.915 224.344 539.343C240.427 545.776 257.673 549 276.101 549V551L274.354 550.99C256.342 550.792 239.424 547.529 223.601 541.2C207.734 534.667 193.734 525.333 181.601 513.2C169.934 500.6 160.601 485.667 153.601 468.4C147.271 451.673 144.008 433.194 143.811 412.963L143.801 411C143.801 389.533 147.067 370.4 153.601 353.6C160.601 336.333 169.934 321.633 181.601 309.5C193.734 296.9 207.734 287.333 223.601 280.8C239.934 274.267 257.434 271 276.101 271L277.847 271.01C295.845 271.208 312.53 274.471 327.901 280.8C344.235 287.333 358.235 296.9 369.901 309.5C382.035 321.633 391.368 336.333 397.901 353.6C404.901 370.4 408.401 389.533 408.401 411L408.391 412.963C408.179 433.194 404.683 451.673 397.901 468.4L397.28 470.012C390.782 486.598 381.656 500.994 369.901 513.2C358.235 525.333 344.235 534.667 327.901 541.2L326.409 541.803C310.954 547.934 294.184 551 276.101 551V549C294.529 549 311.535 545.776 327.14 539.351L327.148 539.347L327.158 539.343C343.24 532.91 356.998 523.733 368.459 511.813L368.46 511.812C380.395 499.418 389.587 484.72 396.03 467.692L396.039 467.67L396.048 467.648C402.939 450.649 406.401 431.775 406.401 411ZM550.401 411C550.401 448.121 543.351 482.465 529.231 514.004C515.591 545.047 496.536 572.103 472.072 595.155C447.603 618.213 418.674 636.082 385.312 648.77L385.311 648.769C352.388 661.466 315.977 667.8 276.101 667.8C236.683 667.8 200.273 661.465 166.89 648.77C133.53 636.083 104.374 618.218 79.4434 595.169L79.4287 595.155L79.415 595.142C54.96 571.627 35.9081 544.344 22.2695 513.305C8.6145 482.228 1.80078 448.117 1.80078 411C1.80078 373.883 8.6145 339.772 22.2695 308.695C35.9098 277.652 54.966 250.596 79.4297 227.544C104.362 204.023 133.522 185.92 166.89 173.23C200.273 160.535 236.683 154.2 276.101 154.2C315.977 154.2 352.388 160.534 385.311 173.23H385.312C418.676 185.918 447.604 204.021 472.071 227.544H472.072C496.536 250.596 515.592 277.652 529.232 308.695H529.231C543.353 339.772 550.401 373.883 550.401 411Z" fill="#222222"/>
</svg>
