<svg width="329" height="330" viewBox="0 0 329 330" fill="none" xmlns="http://www.w3.org/2000/svg">
<circle cx="174" cy="175" r="155" fill="black"/>
<circle cx="155" cy="155" r="152.5" fill="#00FF5E" stroke="#222222" stroke-width="5"/>
<g filter="url(#filter0_d_383_93)">
<path d="M111.664 199.05L187.428 112.25H203.052L127.412 199.05H111.664ZM129.024 159.122C123.403 159.122 118.856 157.427 115.384 154.038C111.912 150.566 110.176 145.73 110.176 139.53C110.176 134.239 111.168 129.486 113.152 125.27C115.136 121.054 117.947 117.665 121.584 115.102C125.304 112.539 129.768 111.258 134.976 111.258C140.597 111.258 145.144 112.994 148.616 116.466C152.088 119.855 153.824 124.65 153.824 130.85C153.824 136.058 152.832 140.811 150.848 145.11C148.864 149.326 146.053 152.715 142.416 155.278C138.779 157.841 134.315 159.122 129.024 159.122ZM130.14 148.954C132.785 148.954 134.935 148.045 136.588 146.226C138.241 144.407 139.44 142.175 140.184 139.53C140.928 136.802 141.3 134.157 141.3 131.594C141.3 128.122 140.597 125.559 139.192 123.906C137.869 122.253 136.092 121.426 133.86 121.426C131.215 121.426 129.065 122.335 127.412 124.154C125.759 125.973 124.56 128.246 123.816 130.974C123.072 133.619 122.7 136.223 122.7 138.786C122.7 142.258 123.403 144.821 124.808 146.474C126.213 148.127 127.991 148.954 130.14 148.954ZM179.864 200.042C174.243 200.042 169.696 198.347 166.224 194.958C162.752 191.569 161.016 186.733 161.016 180.45C161.016 175.242 161.967 170.53 163.868 166.314C165.852 162.015 168.704 158.626 172.424 156.146C176.144 153.583 180.567 152.302 185.692 152.302C191.396 152.302 195.984 154.038 199.456 157.51C202.928 160.899 204.664 165.694 204.664 171.894C204.664 177.102 203.672 181.855 201.688 186.154C199.704 190.37 196.852 193.759 193.132 196.322C189.495 198.802 185.072 200.042 179.864 200.042ZM180.98 189.998C183.625 189.998 185.733 189.089 187.304 187.27C188.957 185.451 190.156 183.178 190.9 180.45C191.727 177.722 192.14 175.077 192.14 172.514C192.14 169.042 191.437 166.479 190.032 164.826C188.627 163.173 186.849 162.346 184.7 162.346C182.055 162.346 179.905 163.255 178.252 165.074C176.599 166.893 175.359 169.166 174.532 171.894C173.788 174.622 173.416 177.267 173.416 179.83C173.416 183.302 174.119 185.865 175.524 187.518C176.929 189.171 178.748 189.998 180.98 189.998Z" fill="#222222"/>
</g>
<defs>
<filter id="filter0_d_383_93" x="110.176" y="111.258" width="100.688" height="93.4339" filterUnits="userSpaceOnUse" color-interpolation-filters="sRGB">
<feFlood flood-opacity="0" result="BackgroundImageFix"/>
<feColorMatrix in="SourceAlpha" type="matrix" values="0 0 0 0 0 0 0 0 0 0 0 0 0 0 0 0 0 0 127 0" result="hardAlpha"/>
<feOffset dx="6.2" dy="4.65"/>
<feColorMatrix type="matrix" values="0 0 0 0 0.117647 0 0 0 0 1 0 0 0 0 0.309804 0 0 0 1 0"/>
<feBlend mode="normal" in2="BackgroundImageFix" result="effect1_dropShadow_383_93"/>
<feBlend mode="normal" in="SourceGraphic" in2="effect1_dropShadow_383_93" result="shape"/>
</filter>
</defs>
</svg>
