<svg width="329" height="330" viewBox="0 0 329 330" fill="none" xmlns="http://www.w3.org/2000/svg">
<circle cx="174" cy="175" r="155" fill="black"/>
<circle cx="155" cy="155" r="152.5" fill="#00FF5E" stroke="#222222" stroke-width="5"/>
<g filter="url(#filter0_d_383_109)">
<path d="M141.288 172.918C141.867 169.777 142.9 167.09 144.388 164.858C145.876 162.626 147.571 160.642 149.472 158.906C151.456 157.17 153.481 155.558 155.548 154.07C157.615 152.582 159.516 151.135 161.252 149.73C162.988 148.325 164.393 146.837 165.468 145.266C166.543 143.613 167.08 141.67 167.08 139.438C167.08 136.875 166.047 134.85 163.98 133.362C161.913 131.791 158.937 131.006 155.052 131.006C151.001 131.006 147.323 131.833 144.016 133.486C140.792 135.139 137.981 137.454 135.584 140.43L122.564 130.882C126.284 125.922 131.285 121.995 137.568 119.102C143.851 116.209 151.001 114.762 159.02 114.762C164.889 114.762 169.973 115.63 174.272 117.366C178.571 119.019 181.877 121.417 184.192 124.558C186.589 127.699 187.788 131.378 187.788 135.594C187.788 139.149 187.168 142.249 185.928 144.894C184.771 147.539 183.241 149.813 181.34 151.714C179.439 153.615 177.372 155.393 175.14 157.046C172.908 158.617 170.717 160.187 168.568 161.758C166.501 163.246 164.683 164.899 163.112 166.718C161.624 168.454 160.591 170.521 160.012 172.918H141.288ZM146.124 204.042C142.817 204.042 140.089 203.05 137.94 201.066C135.791 198.999 134.716 196.519 134.716 193.626C134.716 190.154 135.915 187.302 138.312 185.07C140.792 182.838 143.768 181.722 147.24 181.722C150.547 181.722 153.233 182.714 155.3 184.698C157.449 186.599 158.524 188.997 158.524 191.89C158.524 194.122 157.945 196.189 156.788 198.09C155.713 199.909 154.225 201.355 152.324 202.43C150.505 203.505 148.439 204.042 146.124 204.042Z" fill="#222222"/>
</g>
<defs>
<filter id="filter0_d_383_109" x="122.564" y="114.762" width="71.4227" height="93.93" filterUnits="userSpaceOnUse" color-interpolation-filters="sRGB">
<feFlood flood-opacity="0" result="BackgroundImageFix"/>
<feColorMatrix in="SourceAlpha" type="matrix" values="0 0 0 0 0 0 0 0 0 0 0 0 0 0 0 0 0 0 127 0" result="hardAlpha"/>
<feOffset dx="6.2" dy="4.65"/>
<feColorMatrix type="matrix" values="0 0 0 0 0.117647 0 0 0 0 1 0 0 0 0 0.309804 0 0 0 1 0"/>
<feBlend mode="normal" in2="BackgroundImageFix" result="effect1_dropShadow_383_109"/>
<feBlend mode="normal" in="SourceGraphic" in2="effect1_dropShadow_383_109" result="shape"/>
</filter>
</defs>
</svg>
