<svg width="100" height="108" viewBox="0 0 100 108" fill="none" xmlns="http://www.w3.org/2000/svg">
<path d="M0.000330093 0V107.261H48.8739C58.8227 107.261 67.3414 105.644 74.4299 102.411C81.6428 99.3017 87.2391 94.8247 91.2186 88.9798C95.1981 83.1348 97.1879 76.0463 97.1879 67.7142C97.1879 59.6307 95.1981 52.6666 91.2186 46.8216C87.2391 40.9767 81.6428 36.4997 74.4299 33.3907C67.3414 30.2817 58.8227 28.7272 48.8739 28.7272H16.2293L29.4737 41.2254V0H0.000330093ZM67.528 0L40.4796 38.9869H71.8184L99.2398 0H67.528ZM29.4737 37.8677L18.6544 51.1121H46.822C53.6618 51.1121 58.8227 52.5422 62.3048 55.4025C65.7869 58.3871 67.528 62.491 67.528 67.7142C67.528 73.0617 65.7869 77.1655 62.3048 80.0258C58.8227 82.8861 53.6618 84.3163 46.822 84.3163H18.6544L29.4737 97.5606V37.8677Z" fill="#1EFF4F"/>
</svg>
