<svg width="94" height="112" viewBox="0 0 94 112" fill="none" xmlns="http://www.w3.org/2000/svg">
<path d="M93.8293 34.6963C93.8293 27.9809 91.9017 22.0116 88.0465 16.7884C84.3157 11.5653 78.8439 7.46143 71.631 4.47678C64.5424 1.49214 55.775 -0.00018664 45.3288 -0.00018664C36.7479 -0.00018664 28.2914 1.05688 19.9593 3.171C11.7515 5.28512 5.09822 8.08323 -0.00055268 11.5653L10.2592 33.3905C15.1092 30.1572 20.7676 27.6078 27.2343 25.7424C33.7011 23.877 40.2922 22.9443 47.0076 22.9443C53.5987 22.9443 58.2001 23.877 60.8116 25.7424C63.4232 27.6078 64.729 29.7841 64.729 32.2713C64.729 34.7585 63.5475 36.7483 61.1847 38.2406C58.9462 39.7329 55.9616 40.9143 52.2308 41.7849C48.6243 42.7797 44.5826 43.7124 40.1056 44.583C35.753 45.4535 31.3382 46.5727 26.8613 47.9407C22.5087 49.3087 18.4669 51.1119 14.7361 53.3504C11.1297 55.7132 8.14504 58.76 5.7822 62.4908C3.54372 66.346 2.42447 71.1339 2.42447 76.8545C2.42447 83.5699 4.35206 89.477 8.20723 94.5758C12.1868 99.7989 17.783 103.903 24.9959 106.887C32.2088 109.872 40.7896 111.364 50.7384 111.364C57.4539 111.364 64.2937 110.618 71.2579 109.126C78.2221 107.634 84.3157 105.271 89.5388 102.037L80.0253 80.2122C75.1752 83.1968 70.1386 85.311 64.9155 86.5546C59.8167 87.7982 54.718 88.42 49.6192 88.42C43.4012 88.42 38.862 87.4873 36.0017 85.6219C33.1415 83.7565 31.7113 81.3936 31.7113 78.5333C31.7113 76.0461 32.8306 74.0564 35.069 72.564C37.3075 71.0717 40.23 69.8281 43.8364 68.8332C47.5673 67.9627 51.6711 67.0922 56.1481 66.2217C60.6251 65.3511 65.0399 64.2319 69.3925 62.8639C73.7451 61.6203 77.7868 59.8793 81.5176 57.6408C85.2484 55.4023 88.2331 52.4177 90.4715 48.6869C92.71 45.0804 93.8293 40.4169 93.8293 34.6963Z" fill="#1EFF4F"/>
</svg>
