<svg width="278" height="171" viewBox="0 0 278 171" fill="none" xmlns="http://www.w3.org/2000/svg">
<rect x="118" y="11" width="160" height="160" fill="black"/>
<rect x="107" width="160" height="160" fill="#1EFF4F"/>
<rect x="8" y="46" width="99" height="8" fill="#222222"/>
<rect y="38" width="8" height="25" fill="#222222"/>
<rect x="8" y="105" width="99" height="8" fill="#222222"/>
<rect y="97" width="8" height="25" fill="#222222"/>
<path d="M142.718 97.15C140.685 97.15 139.135 96.5667 138.068 95.4C137.002 94.2333 136.468 92.7 136.468 90.8V65.5H137.468V90.55C137.468 92.3833 137.918 93.7833 138.818 94.75C139.718 95.7167 141.035 96.2 142.768 96.2C144.502 96.2 145.935 95.6667 147.068 94.6L147.768 95.3C147.168 95.9333 146.402 96.4 145.468 96.7C144.568 97 143.652 97.15 142.718 97.15ZM131.468 72.1V71.15H146.218V72.1H131.468ZM172.303 71C174.436 71 176.27 71.4167 177.803 72.25C179.336 73.05 180.52 74.25 181.353 75.85C182.22 77.45 182.653 79.4167 182.653 81.75V97H181.653V81.75C181.653 78.55 180.836 76.1167 179.203 74.45C177.57 72.7833 175.286 71.95 172.353 71.95C170.086 71.95 168.136 72.4167 166.503 73.35C164.87 74.25 163.62 75.5333 162.753 77.2C161.886 78.8333 161.453 80.75 161.453 82.95V97H160.453V59.9H161.453V78.5L161.353 78.35C162.12 76.0833 163.436 74.3 165.303 73C167.17 71.6667 169.503 71 172.303 71ZM198.852 97V71.15H199.852V97H198.852ZM199.352 64C199.018 64 198.718 63.8667 198.452 63.6C198.185 63.3333 198.052 63.0333 198.052 62.7C198.052 62.3333 198.185 62.0333 198.452 61.8C198.718 61.5333 199.018 61.4 199.352 61.4C199.718 61.4 200.018 61.5333 200.252 61.8C200.518 62.0333 200.652 62.3333 200.652 62.7C200.652 63.0333 200.518 63.3333 200.252 63.6C200.018 63.8667 199.718 64 199.352 64ZM228.202 71C230.335 71 232.168 71.4167 233.702 72.25C235.235 73.05 236.418 74.25 237.252 75.85C238.118 77.45 238.552 79.4167 238.552 81.75V97H237.552V81.75C237.552 78.55 236.735 76.1167 235.102 74.45C233.468 72.7833 231.185 71.95 228.252 71.95C225.985 71.95 224.035 72.4167 222.402 73.35C220.768 74.25 219.518 75.5333 218.652 77.2C217.785 78.8333 217.352 80.75 217.352 82.95V97H216.352V71.15H217.352V78.5L217.252 78.35C218.018 76.0833 219.335 74.3 221.202 73C223.068 71.6667 225.402 71 228.202 71Z" fill="#222222"/>
</svg>
