<svg width="256" height="171" viewBox="0 0 256 171" fill="none" xmlns="http://www.w3.org/2000/svg">
<rect x="248" y="121" width="99" height="8" transform="rotate(180 248 121)" fill="#222222"/>
<rect x="256" y="129" width="8" height="25" transform="rotate(180 256 129)" fill="#222222"/>
<rect x="248" y="62" width="99" height="8" transform="rotate(180 248 62)" fill="#222222"/>
<rect x="256" y="70" width="8" height="25" transform="rotate(180 256 70)" fill="#222222"/>
<rect x="11" y="11" width="160" height="160" rx="80" fill="black"/>
<rect width="160" height="160" rx="80" fill="#1EFF4F"/>
<path d="M42.3621 91.3C40.8621 91.3 39.6521 91 38.7321 90.4C37.8121 89.8 37.1421 88.87 36.7221 87.61C36.3221 86.35 36.1221 84.74 36.1221 82.78C36.1221 80.84 36.3421 79.25 36.7821 78.01C37.2221 76.75 37.9021 75.82 38.8221 75.22C39.7621 74.6 40.9421 74.29 42.3621 74.29C43.8021 74.29 45.1221 74.63 46.3221 75.31C47.5221 75.99 48.4821 76.97 49.2021 78.25C49.9221 79.51 50.2821 81.02 50.2821 82.78C50.2821 84.54 49.9221 86.06 49.2021 87.34C48.4821 88.6 47.5221 89.58 46.3221 90.28C45.1221 90.96 43.8021 91.3 42.3621 91.3ZM31.4121 91V68.74H38.1921V76.78L37.8921 82.78L37.8621 88.78V91H31.4121ZM40.7421 86.02C41.2421 86.02 41.6921 85.9 42.0921 85.66C42.4921 85.42 42.8121 85.06 43.0521 84.58C43.2921 84.08 43.4121 83.48 43.4121 82.78C43.4121 82.06 43.2921 81.47 43.0521 81.01C42.8121 80.53 42.4921 80.17 42.0921 79.93C41.6921 79.69 41.2421 79.57 40.7421 79.57C40.2421 79.57 39.7921 79.69 39.3921 79.93C38.9921 80.17 38.6721 80.53 38.4321 81.01C38.1921 81.47 38.0721 82.06 38.0721 82.78C38.0721 83.48 38.1921 84.08 38.4321 84.58C38.6721 85.06 38.9921 85.42 39.3921 85.66C39.7921 85.9 40.2421 86.02 40.7421 86.02ZM55.418 91V68.74H62.198V91H55.418ZM78.1331 91V88.09L77.6531 87.31V81.79C77.6531 80.99 77.4031 80.38 76.9031 79.96C76.4231 79.54 75.6331 79.33 74.5331 79.33C73.7931 79.33 73.0431 79.45 72.2831 79.69C71.5231 79.91 70.8731 80.22 70.3331 80.62L68.1731 76.15C69.1331 75.55 70.2831 75.09 71.6231 74.77C72.9631 74.45 74.2731 74.29 75.5531 74.29C78.3731 74.29 80.5531 74.92 82.0931 76.18C83.6531 77.44 84.4331 79.44 84.4331 82.18V91H78.1331ZM73.4831 91.3C72.1431 91.3 71.0231 91.07 70.1231 90.61C69.2231 90.15 68.5431 89.54 68.0831 88.78C67.6231 88 67.3931 87.14 67.3931 86.2C67.3931 85.14 67.6631 84.24 68.2031 83.5C68.7431 82.76 69.5631 82.2 70.6631 81.82C71.7831 81.44 73.1931 81.25 74.8931 81.25H78.3131V84.52H75.9731C75.2531 84.52 74.7231 84.64 74.3831 84.88C74.0631 85.1 73.9031 85.44 73.9031 85.9C73.9031 86.28 74.0431 86.6 74.3231 86.86C74.6231 87.1 75.0231 87.22 75.5231 87.22C75.9831 87.22 76.4031 87.1 76.7831 86.86C77.1831 86.6 77.4731 86.2 77.6531 85.66L78.5231 87.67C78.2631 88.89 77.7131 89.8 76.8731 90.4C76.0331 91 74.9031 91.3 73.4831 91.3ZM99.4763 91.3C97.5963 91.3 95.9263 90.94 94.4663 90.22C93.0063 89.5 91.8563 88.5 91.0163 87.22C90.1963 85.92 89.7863 84.44 89.7863 82.78C89.7863 81.12 90.1963 79.65 91.0163 78.37C91.8563 77.09 93.0063 76.09 94.4663 75.37C95.9263 74.65 97.5963 74.29 99.4763 74.29C101.476 74.29 103.186 74.72 104.606 75.58C106.026 76.44 107.006 77.63 107.546 79.15L102.296 81.73C101.956 80.97 101.536 80.42 101.036 80.08C100.556 79.74 100.026 79.57 99.4463 79.57C98.9463 79.57 98.4763 79.69 98.0363 79.93C97.6163 80.17 97.2763 80.53 97.0163 81.01C96.7763 81.47 96.6562 82.06 96.6562 82.78C96.6562 83.5 96.7763 84.1 97.0163 84.58C97.2763 85.06 97.6163 85.42 98.0363 85.66C98.4763 85.9 98.9463 86.02 99.4463 86.02C100.026 86.02 100.556 85.85 101.036 85.51C101.536 85.17 101.956 84.62 102.296 83.86L107.546 86.44C107.006 87.96 106.026 89.15 104.606 90.01C103.186 90.87 101.476 91.3 99.4763 91.3ZM117.783 88.3L117.933 80.32L123.603 74.59H131.613L124.113 82.45L120.723 85.18L117.783 88.3ZM112.113 91V68.74H118.893V91H112.113ZM123.963 91L119.463 85.3L123.633 80.17L132.153 91H123.963Z" fill="#222222"/>
</svg>
