<svg width="46" height="92" viewBox="0 0 46 92" fill="none" xmlns="http://www.w3.org/2000/svg">
<path d="M32.1024 74V65.3984L31.7184 63.7856V49.1168C31.7184 45.9936 30.7968 43.5872 28.9536 41.8976C27.1616 40.1568 24.448 39.2864 20.8128 39.2864C18.4064 39.2864 16.0512 39.696 13.7472 40.5152C11.4432 41.2832 9.4976 42.3328 7.9104 43.664L4.8384 38.1344C6.9376 36.4448 9.4464 35.1648 12.3648 34.2944C15.3344 33.3728 18.432 32.912 21.6576 32.912C27.2384 32.912 31.5392 34.2688 34.56 36.9824C37.5808 39.696 39.0912 43.8432 39.0912 49.424V74H32.1024ZM18.7392 74.4608C15.7184 74.4608 13.056 73.9488 10.752 72.9248C8.4992 71.9008 6.7584 70.4928 5.5296 68.7008C4.3008 66.8576 3.6864 64.784 3.6864 62.48C3.6864 60.2784 4.1984 58.2816 5.2224 56.4896C6.2976 54.6976 8.0128 53.264 10.368 52.1888C12.7744 51.1136 16 50.576 20.0448 50.576H32.9472V55.8752H20.352C16.6656 55.8752 14.1824 56.4896 12.9024 57.7184C11.6224 58.9472 10.9824 60.432 10.9824 62.1728C10.9824 64.1696 11.776 65.7824 13.3632 67.0112C14.9504 68.1888 17.152 68.7776 19.968 68.7776C22.7328 68.7776 25.1392 68.1632 27.1872 66.9344C29.2864 65.7056 30.7968 63.9136 31.7184 61.5584L33.1776 66.6272C32.2048 69.0336 30.4896 70.9536 28.032 72.3872C25.5744 73.7696 22.4768 74.4608 18.7392 74.4608Z" fill="#222222"/>
<path d="M1.99805 32.999H3.99679V73.999H1.99805V32.999Z" fill="#1EFF4F"/>
</svg>
