<svg width="48" height="92" viewBox="0 0 48 92" fill="none" xmlns="http://www.w3.org/2000/svg">
<path d="M7.1424 74V33.296H26.0352C30.7968 33.296 34.5344 34.2176 37.248 36.0608C40.0128 37.8528 41.3952 40.4128 41.3952 43.7408C41.3952 47.0688 40.0896 49.6544 37.4784 51.4976C34.9184 53.2896 31.5136 54.1856 27.264 54.1856L28.416 52.1888C33.28 52.1888 36.8896 53.0848 39.2448 54.8768C41.6 56.6688 42.7776 59.3056 42.7776 62.7872C42.7776 66.32 41.4464 69.0848 38.784 71.0816C36.1728 73.0272 32.1536 74 26.7264 74H7.1424ZM14.3616 68.3168H26.1888C29.2608 68.3168 31.5648 67.856 33.1008 66.9344C34.6368 65.9616 35.4048 64.4256 35.4048 62.3264C35.4048 60.176 34.688 58.6144 33.2544 57.6416C31.872 56.6176 29.6704 56.1056 26.6496 56.1056H14.3616V68.3168ZM14.3616 50.8064H25.4208C28.2368 50.8064 30.3616 50.2944 31.7952 49.2704C33.28 48.1952 34.0224 46.7104 34.0224 44.816C34.0224 42.8704 33.28 41.4112 31.7952 40.4384C30.3616 39.4656 28.2368 38.9792 25.4208 38.9792H14.3616V50.8064Z" fill="#222222"/>
<path d="M5.63477 33.2783L7.63351 33.2786V73.9991H5.63477V33.2783Z" fill="#1EFF4F"/>
</svg>
