<svg width="49" height="92" viewBox="0 0 49 92" fill="none" xmlns="http://www.w3.org/2000/svg">
<path d="M25.2672 74.4608C20.9152 74.4608 17.0752 73.5648 13.7472 71.7728C10.4704 69.9808 7.9104 67.5232 6.0672 64.4C4.2752 61.2768 3.3792 57.6928 3.3792 53.648C3.3792 49.6032 4.2496 46.0192 5.9904 42.896C7.7824 39.7728 10.2144 37.3408 13.2864 35.6C16.4096 33.808 19.9168 32.912 23.808 32.912C27.7504 32.912 31.232 33.7824 34.2528 35.5232C37.2736 37.264 39.6288 39.7216 41.3184 42.896C43.0592 46.0192 43.9296 49.68 43.9296 53.8784C43.9296 54.1856 43.904 54.544 43.8528 54.9536C43.8528 55.3632 43.8272 55.7472 43.776 56.1056H9.1392V50.8064H39.936L36.9408 52.6496C36.992 50.0384 36.4544 47.7088 35.328 45.6608C34.2016 43.6128 32.64 42.0256 30.6432 40.8992C28.6976 39.7216 26.4192 39.1328 23.808 39.1328C21.248 39.1328 18.9696 39.7216 16.9728 40.8992C14.976 42.0256 13.4144 43.6384 12.288 45.7376C11.1616 47.7856 10.5984 50.1408 10.5984 52.8032V54.032C10.5984 56.7456 11.2128 59.1776 12.4416 61.328C13.7216 63.4272 15.488 65.0656 17.7408 66.2432C19.9936 67.4208 22.5792 68.0096 25.4976 68.0096C27.904 68.0096 30.08 67.6 32.0256 66.7808C34.0224 65.9616 35.7632 64.7328 37.248 63.0944L41.3184 67.856C39.4752 70.0064 37.1712 71.6448 34.4064 72.7712C31.6928 73.8976 28.6464 74.4608 25.2672 74.4608Z" fill="#222222"/>
<path d="M1.5957 32.9993L3.59445 32.999V73.999H1.5957V32.9993Z" fill="#1EFF4F"/>
</svg>
