<svg width="52" height="92" viewBox="0 0 52 92" fill="none" xmlns="http://www.w3.org/2000/svg">
<path d="M35.6647 70.544V39.7472H18.0007L17.6167 47.5808C17.5143 50.1408 17.3351 52.624 17.0791 55.0304C16.8743 57.3856 16.5159 59.5616 16.0039 61.5584C15.5431 63.5552 14.8519 65.1936 13.9303 66.4736C13.0087 67.7536 11.7799 68.5472 10.2439 68.8544L2.9479 67.5488C4.5351 67.6 5.8151 67.088 6.7879 66.0128C7.7607 64.8864 8.5031 63.3504 9.0151 61.4048C9.5783 59.4592 9.9879 57.2576 10.2439 54.8C10.4999 52.2912 10.7047 49.7056 10.8583 47.0432L11.4727 33.296H43.0375V70.544H35.6647ZM1.3351 83.4464V67.5488H49.2583V83.4464H42.3463V74H8.3239V83.4464H1.3351Z" fill="#222222"/>
<path d="M0 32.9994L1.99875 32.999V83.499H0V32.9994Z" fill="#1EFF4F"/>
</svg>
