<svg width="51" height="92" viewBox="0 0 51 92" fill="none" xmlns="http://www.w3.org/2000/svg">
<path d="M25.9584 74.6144C22.5792 74.6144 19.584 74.0768 16.9728 73.0016C14.4128 71.9264 12.2112 70.3392 10.368 68.24C8.5248 66.0896 7.1168 63.4016 6.144 60.176C5.2224 56.8992 4.7616 53.0592 4.7616 48.656C4.7616 45.1744 5.0688 42.0512 5.6832 39.2864C6.2976 36.5216 7.168 34.064 8.2944 31.9136C9.472 29.7632 10.9056 27.8944 12.5952 26.3072C14.336 24.72 16.2816 23.4144 18.432 22.3904C20.6336 21.3152 23.04 20.496 25.6512 19.9328L44.2368 15.7856L45.312 22.6208L28.1856 26.3072C27.1616 26.512 25.9328 26.8192 24.4992 27.2288C23.0656 27.6384 21.6064 28.2784 20.1216 29.1488C18.6368 29.968 17.2544 31.12 15.9744 32.6048C14.6944 34.0896 13.6704 36.0352 12.9024 38.4416C12.1344 40.7968 11.7504 43.7152 11.7504 47.1968C11.7504 48.1696 11.776 48.912 11.8272 49.424C11.8784 49.936 11.9296 50.448 11.9808 50.96C12.0832 51.472 12.16 52.24 12.2112 53.264L9.1392 50.1152C9.9584 47.2992 11.264 44.8416 13.056 42.7424C14.848 40.6432 16.9984 39.0304 19.5072 37.904C22.0672 36.7264 24.8576 36.1376 27.8784 36.1376C31.6672 36.1376 35.0208 36.9568 37.9392 38.5952C40.9088 40.2336 43.2384 42.4864 44.928 45.3536C46.6176 48.2208 47.4624 51.4976 47.4624 55.184C47.4624 58.9216 46.5664 62.2752 44.7744 65.2448C43.0336 68.1632 40.5504 70.4672 37.3248 72.1568C34.0992 73.7952 30.3104 74.6144 25.9584 74.6144ZM26.6496 68.4704C29.2608 68.4704 31.5648 67.9072 33.5616 66.7808C35.5584 65.6032 37.12 64.0416 38.2464 62.096C39.3728 60.0992 39.936 57.872 39.936 55.4144C39.936 52.9568 39.3728 50.7808 38.2464 48.8864C37.12 46.992 35.5584 45.5072 33.5616 44.432C31.5648 43.3056 29.2096 42.7424 26.496 42.7424C23.936 42.7424 21.632 43.28 19.584 44.3552C17.536 45.3792 15.9488 46.8384 14.8224 48.7328C13.696 50.576 13.1328 52.7264 13.1328 55.184C13.1328 57.6416 13.696 59.8944 14.8224 61.9424C16 63.9392 17.5872 65.5264 19.584 66.704C21.632 67.8816 23.9872 68.4704 26.6496 68.4704Z" fill="#222222"/>
<path d="M3.31836 15.999H5.3171V73.999H3.31836V15.999Z" fill="#1EFF4F"/>
</svg>
