<svg width="329" height="330" viewBox="0 0 329 330" fill="none" xmlns="http://www.w3.org/2000/svg">
<circle cx="174" cy="175" r="155" fill="black"/>
<circle cx="155" cy="155" r="152.5" fill="#00FF5E" stroke="#222222" stroke-width="5"/>
<g filter="url(#filter0_d_383_87)">
<path d="M166.345 180.946L156.797 171.894C160.352 170.985 163.039 169.662 164.857 167.926C166.759 166.107 167.709 164.123 167.709 161.974C167.709 159.907 166.924 158.378 165.353 157.386C163.783 156.311 161.757 155.443 159.277 154.782C156.797 154.038 154.111 153.294 151.217 152.55C148.407 151.806 145.761 150.814 143.281 149.574C140.801 148.251 138.735 146.474 137.081 144.242C135.511 142.01 134.725 139.034 134.725 135.314C134.725 130.189 136.213 125.849 139.189 122.294C142.165 118.657 146.257 115.929 151.465 114.11C156.673 112.209 162.543 111.258 169.073 111.258C171.719 111.258 174.529 111.506 177.505 112.002C180.564 112.415 183.499 113.035 186.309 113.862C189.203 114.689 191.724 115.805 193.873 117.21L186.557 130.602C183.581 128.701 180.399 127.378 177.009 126.634C173.703 125.807 170.313 125.394 166.841 125.394C161.799 125.394 158.037 126.221 155.557 127.874C153.16 129.445 151.961 131.305 151.961 133.454C151.961 135.273 152.747 136.678 154.317 137.67C155.888 138.579 157.913 139.365 160.393 140.026C162.956 140.605 165.601 141.266 168.329 142.01C171.057 142.754 173.661 143.787 176.141 145.11C178.704 146.35 180.771 148.086 182.341 150.318C183.912 152.55 184.697 155.526 184.697 159.246C184.697 164.537 182.92 169.042 179.365 172.762C175.893 176.399 171.553 179.127 166.345 180.946ZM143.653 212.318C138.776 212.318 133.981 211.698 129.269 210.458C124.64 209.218 120.796 207.358 117.737 204.878L125.053 191.362C128.195 193.677 131.419 195.413 134.725 196.57C138.032 197.645 141.545 198.182 145.265 198.182C149.895 198.182 153.367 197.397 155.681 195.826C157.996 194.173 159.153 192.271 159.153 190.122C159.153 188.386 158.368 187.022 156.797 186.03C155.227 185.038 153.201 184.211 150.721 183.55C148.241 182.806 145.596 182.062 142.785 181.318C139.975 180.574 137.329 179.582 134.849 178.342C132.369 177.019 130.303 175.283 128.649 173.134C127.079 170.985 126.293 168.091 126.293 164.454C126.293 159.411 127.988 154.989 131.377 151.186C134.849 147.301 139.272 144.49 144.645 142.754L154.069 151.682C150.432 152.674 147.745 154.079 146.009 155.898C144.273 157.717 143.405 159.659 143.405 161.726C143.405 163.627 144.191 165.115 145.761 166.19C147.332 167.182 149.357 168.05 151.837 168.794C154.4 169.538 157.087 170.282 159.897 171.026C162.708 171.77 165.353 172.803 167.833 174.126C170.313 175.366 172.339 177.102 173.909 179.334C175.563 181.566 176.389 184.542 176.389 188.262C176.389 193.222 174.943 197.521 172.049 201.158C169.239 204.795 165.353 207.565 160.393 209.466C155.516 211.367 149.936 212.318 143.653 212.318Z" fill="#222222"/>
</g>
<defs>
<filter id="filter0_d_383_87" x="117.736" y="111.258" width="82.3367" height="105.71" filterUnits="userSpaceOnUse" color-interpolation-filters="sRGB">
<feFlood flood-opacity="0" result="BackgroundImageFix"/>
<feColorMatrix in="SourceAlpha" type="matrix" values="0 0 0 0 0 0 0 0 0 0 0 0 0 0 0 0 0 0 127 0" result="hardAlpha"/>
<feOffset dx="6.2" dy="4.65"/>
<feColorMatrix type="matrix" values="0 0 0 0 0.117647 0 0 0 0 1 0 0 0 0 0.309804 0 0 0 1 0"/>
<feBlend mode="normal" in2="BackgroundImageFix" result="effect1_dropShadow_383_87"/>
<feBlend mode="normal" in="SourceGraphic" in2="effect1_dropShadow_383_87" result="shape"/>
</filter>
</defs>
</svg>
